<svg width="222" height="222" viewBox="0 0 222 222" fill="none" xmlns="http://www.w3.org/2000/svg">
<path d="M137.414 50.75L176.385 118.25C188.124 138.583 173.45 164 149.971 164H72.0288C48.5499 164 33.8756 138.583 45.6151 118.25L84.5863 50.75C96.3257 30.4166 125.674 30.4167 137.414 50.75Z" fill="#5F4AB1" stroke="white" stroke-width="5" stroke-linejoin="round"/>
<path d="M82.9596 67.1691C95.6782 45.2576 127.322 45.2576 140.04 67.1691L163.702 107.934C176.472 129.934 160.599 157.5 135.162 157.5H87.8381C62.4005 157.5 46.5277 129.934 59.2977 107.934L82.9596 67.1691Z" fill="white"/>
<path d="M217 107.5C217 165.757 169.551 213 111 213C52.4491 213 5 165.757 5 107.5C5 49.2427 52.4491 2 111 2C169.551 2 217 49.2427 217 107.5Z" stroke="white" stroke-width="4"/>
<path d="M164.786 46.4996C164.699 45.3984 163.736 44.5759 162.635 44.6623L144.69 46.0716C143.589 46.1581 142.767 47.1209 142.853 48.2221C142.94 49.3232 143.902 50.1458 145.004 50.0593L160.954 48.8067L162.207 64.7575C162.294 65.8587 163.256 66.6813 164.358 66.5948C165.459 66.5083 166.281 65.5455 166.195 64.4444L164.786 46.4996ZM112.521 108.575L164.312 47.9554L161.271 45.3571L109.479 105.977L112.521 108.575Z" fill="#F68C8C"/>
<path d="M37.9281 38.7729C36.8247 38.8242 35.9718 39.7601 36.023 40.8635L36.8575 58.8442C36.9087 59.9475 37.8447 60.8005 38.9481 60.7493C40.0515 60.6981 40.9044 59.7621 40.8532 58.6587L40.1114 42.6759L56.0942 41.9341C57.1976 41.8829 58.0505 40.9469 57.9993 39.8435C57.9481 38.7401 57.0121 37.8872 55.9088 37.9384L37.9281 38.7729ZM112.347 105.798L39.368 39.2925L36.6737 42.2491L109.653 108.754L112.347 105.798Z" fill="#D5CFF4"/>
<path d="M110.293 210.707C110.683 211.098 111.317 211.098 111.707 210.707L118.071 204.343C118.462 203.953 118.462 203.319 118.071 202.929C117.681 202.538 117.047 202.538 116.657 202.929L111 208.586L105.343 202.929C104.953 202.538 104.319 202.538 103.929 202.929C103.538 203.319 103.538 203.953 103.929 204.343L110.293 210.707ZM110 107V210H112V107H110Z" fill="#DD2041"/>
</svg>
