<svg width="216" height="215" viewBox="0 0 216 215" fill="none" xmlns="http://www.w3.org/2000/svg">
<path d="M134.414 50.75L173.385 118.25C185.124 138.583 170.45 164 146.971 164H69.0288C45.5499 164 30.8756 138.583 42.6151 118.25L81.5863 50.75C93.3257 30.4166 122.674 30.4167 134.414 50.75Z" stroke="white" stroke-width="5" stroke-linejoin="round"/>
<path d="M79.9596 67.1691C92.6782 45.2576 124.322 45.2576 137.04 67.1691L160.702 107.934C173.472 129.934 157.599 157.5 132.162 157.5H84.8381C59.4005 157.5 43.5277 129.934 56.2977 107.934L79.9596 67.1691Z" fill="white"/>
<path d="M214 107.5C214 165.757 166.551 213 108 213C49.4491 213 2 165.757 2 107.5C2 49.2427 49.4491 2 108 2C166.551 2 214 49.2427 214 107.5Z" stroke="white" stroke-width="4"/>
<path d="M161.786 46.4996C161.699 45.3984 160.736 44.5759 159.635 44.6623L141.69 46.0716C140.589 46.1581 139.767 47.1209 139.853 48.2221C139.94 49.3232 140.902 50.1458 142.004 50.0593L157.954 48.8067L159.207 64.7575C159.294 65.8587 160.256 66.6813 161.358 66.5948C162.459 66.5083 163.281 65.5455 163.195 64.4444L161.786 46.4996ZM109.521 108.575L161.312 47.9554L158.271 45.3571L106.479 105.977L109.521 108.575Z" fill="#F68C8C"/>
<path d="M34.9281 38.7729C33.8247 38.8242 32.9718 39.7601 33.023 40.8635L33.8575 58.8442C33.9087 59.9475 34.8447 60.8005 35.9481 60.7493C37.0515 60.6981 37.9044 59.7621 37.8532 58.6587L37.1114 42.6759L53.0942 41.9341C54.1976 41.8829 55.0505 40.9469 54.9993 39.8435C54.9481 38.7401 54.0121 37.8872 52.9088 37.9384L34.9281 38.7729ZM109.347 105.798L36.368 39.2925L33.6737 42.2491L106.653 108.754L109.347 105.798Z" fill="#D5CFF4"/>
<path d="M107.293 210.707C107.683 211.098 108.317 211.098 108.707 210.707L115.071 204.343C115.462 203.953 115.462 203.319 115.071 202.929C114.681 202.538 114.047 202.538 113.657 202.929L108 208.586L102.343 202.929C101.953 202.538 101.319 202.538 100.929 202.929C100.538 203.319 100.538 203.953 100.929 204.343L107.293 210.707ZM107 107V210H109V107H107Z" fill="#DD2041"/>
</svg>
