<svg width="66" height="66" viewBox="0 0 66 66" fill="none" xmlns="http://www.w3.org/2000/svg">
<path d="M33 66C51.2254 66 66 51.2254 66 33C66 14.7746 51.2254 0 33 0C14.7746 0 0 14.7746 0 33C0 51.2254 14.7746 66 33 66Z" fill="#5F4AB1"/>
<path d="M33 65.5C50.9493 65.5 65.5 50.9493 65.5 33C65.5 15.0507 50.9493 0.5 33 0.5C15.0507 0.5 0.5 15.0507 0.5 33C0.5 50.9493 15.0507 65.5 33 65.5Z" stroke="#707070"/>
<path d="M46.9851 46.318C46.4791 44.082 43.5851 42.992 42.5901 42.641C41.3833 42.3383 40.1604 42.1046 38.9271 41.941C38.305 41.8292 37.7217 41.5607 37.2321 41.161C36.9511 40.824 37.1201 37.695 37.1201 37.695C37.4284 37.2093 37.6959 36.6989 37.9201 36.169C38.179 35.2942 38.3768 34.4023 38.5121 33.5C38.5121 33.5 39.0891 33.5 39.2921 32.487C39.5601 31.726 39.7347 30.9352 39.8121 30.132C39.7701 29.323 39.3271 29.344 39.3271 29.344C39.6639 28.172 39.825 26.9564 39.8051 25.737C39.8681 22.847 37.6051 19.999 33.5051 19.999C29.3501 19.999 27.1351 22.847 27.1981 25.737C27.1833 26.9556 27.3419 28.1701 27.6691 29.344C27.6691 29.344 27.2261 29.323 27.1841 30.132C27.2614 30.9352 27.436 31.726 27.7041 32.487C27.9041 33.5 28.4841 33.5 28.4841 33.5C28.6191 34.401 28.8166 35.2914 29.0751 36.165C29.2992 36.6949 29.5668 37.2053 29.8751 37.691C29.8751 37.691 30.0441 40.82 29.7621 41.157C29.2725 41.5567 28.6891 41.8252 28.0671 41.937C26.8338 42.1006 25.6108 42.3343 24.4041 42.637C23.4041 42.989 20.5161 44.078 20.0091 46.314C19.991 46.3966 19.9918 46.4821 20.0114 46.5643C20.031 46.6465 20.0689 46.7232 20.1222 46.7888C20.1755 46.8543 20.243 46.907 20.3195 46.9429C20.396 46.9788 20.4796 46.9969 20.5641 46.996H46.4371C46.5206 46.9959 46.6031 46.9772 46.6784 46.9411C46.7538 46.9051 46.8202 46.8526 46.8727 46.7877C46.9252 46.7227 46.9626 46.6468 46.982 46.5656C47.0014 46.4843 47.0025 46.3997 46.9851 46.318Z" fill="#E9E7EF"/>
</svg>
