<svg width="24" height="24" viewBox="0 0 24 24" fill="none" xmlns="http://www.w3.org/2000/svg">
<path d="M20.64 12.205C20.6404 11.5877 20.5855 10.9715 20.476 10.364H12V13.845H16.844C16.7441 14.3961 16.5335 14.9213 16.2248 15.3886C15.9161 15.856 15.5157 16.2558 15.048 16.564V18.82H17.956C18.8418 17.9669 19.5385 16.9373 20.0009 15.7977C20.4633 14.6581 20.681 13.4341 20.64 12.205V12.205Z" fill="#4285F4"/>
<path d="M12 21C14.1911 21.0598 16.3221 20.2799 17.957 18.82L15.047 16.561C14.1395 17.145 13.078 17.4441 11.999 17.42C10.8772 17.4058 9.78807 17.0403 8.88488 16.3747C7.98168 15.7092 7.30988 14.7773 6.96403 13.71L3.95703 13.71V16.042C4.70635 17.5327 5.85531 18.7858 7.27559 19.6613C8.69588 20.5368 10.3316 21.0003 12 21V21Z" fill="#34A853"/>
<path d="M6.96392 13.71C6.58758 12.601 6.58758 11.3989 6.96392 10.29V7.95798H3.95692C3.32736 9.21236 2.99951 10.5965 2.99951 12C2.99951 13.4035 3.32736 14.7876 3.95692 16.042L6.96392 13.71Z" fill="#FBBC05"/>
<path d="M12 6.57999C13.2791 6.55862 14.5151 7.04223 15.44 7.92599L18.021 5.34499C16.3923 3.81482 14.2346 2.97445 12 2.99999C10.3316 2.99967 8.69588 3.46314 7.27559 4.33866C5.85531 5.21418 4.70635 6.46726 3.95703 7.95799L6.96403 10.29C7.30994 9.22256 7.98188 8.29048 8.88528 7.62495C9.78868 6.95942 10.878 6.59395 12 6.57999Z" fill="#EA4335"/>
</svg>
