<svg width="428" height="926" viewBox="0 0 428 926" fill="none" xmlns="http://www.w3.org/2000/svg">
<rect width="428" height="926" fill="#5F4AB1"/>
<line x1="49.5" y1="2.18557e-08" x2="49.5" y2="669" stroke="white"/>
<g clip-path="url(#clip0_22_24)">
<path d="M50.1699 641.772C32.1069 641.772 15.0699 635.978 -7.62939e-05 625.672L-7.62939e-05 369.036C14.5531 359.301 31.6529 354.071 49.1619 354C49.1619 383.279 50.1699 580.068 50.1699 641.772Z" fill="#FFAFDF"/>
</g>
<g clip-path="url(#clip1_22_24)">
<path d="M376 221C394.62 221 412.183 226.794 427.717 237.1V493.736C412.614 503.501 395.024 508.721 377.039 508.772C377.039 479.493 376 282.704 376 221Z" fill="#D5CFF4"/>
</g>
<path d="M201.165 0C209.303 27.6661 209.719 57.0309 202.369 84.9167C195.02 112.802 180.184 138.147 159.467 158.208C138.75 178.27 112.942 192.283 84.8341 198.733C56.7265 205.183 27.3903 203.823 0 194.8V0H201.165Z" fill="#F68C8C"/>
<path d="M107.071 168V154.917H107.806L111.25 161.448L114.757 154.896H115.45V168H114.484V157.29L111.439 162.813H110.956L108.037 157.311V168H107.071ZM121.75 168.168C120.882 168.168 120.133 167.958 119.503 167.538C118.873 167.118 118.383 166.537 118.033 165.795C117.697 165.053 117.529 164.199 117.529 163.233C117.529 162.253 117.697 161.392 118.033 160.65C118.383 159.908 118.873 159.327 119.503 158.907C120.133 158.487 120.882 158.277 121.75 158.277C122.618 158.277 123.367 158.487 123.997 158.907C124.627 159.327 125.11 159.908 125.446 160.65C125.796 161.392 125.971 162.253 125.971 163.233C125.971 164.199 125.796 165.053 125.446 165.795C125.11 166.537 124.627 167.118 123.997 167.538C123.367 167.958 122.618 168.168 121.75 168.168ZM121.75 167.286C122.422 167.286 122.989 167.111 123.451 166.761C123.927 166.411 124.291 165.928 124.543 165.312C124.795 164.696 124.921 163.996 124.921 163.212C124.921 162.386 124.781 161.672 124.501 161.07C124.235 160.454 123.864 159.978 123.388 159.642C122.926 159.306 122.38 159.138 121.75 159.138C121.106 159.138 120.546 159.313 120.07 159.663C119.594 160.013 119.23 160.496 118.978 161.112C118.726 161.714 118.6 162.414 118.6 163.212C118.6 164.01 118.726 164.717 118.978 165.333C119.23 165.949 119.594 166.432 120.07 166.782C120.546 167.118 121.106 167.286 121.75 167.286ZM129.604 158.487H130.675L130.612 161.28L130.444 161.133C130.528 160.685 130.675 160.286 130.885 159.936C131.109 159.572 131.375 159.264 131.683 159.012C132.005 158.76 132.348 158.571 132.712 158.445C133.09 158.319 133.475 158.256 133.867 158.256C134.343 158.256 134.819 158.347 135.295 158.529C135.771 158.697 136.177 158.956 136.513 159.306L136.03 160.083L135.946 160.251L135.799 160.167C135.799 160.069 135.771 159.978 135.715 159.894C135.659 159.81 135.533 159.698 135.337 159.558C135.085 159.404 134.84 159.299 134.602 159.243C134.378 159.173 134.133 159.138 133.867 159.138C133.433 159.138 133.02 159.222 132.628 159.39C132.236 159.558 131.886 159.803 131.578 160.125C131.284 160.447 131.053 160.839 130.885 161.301C130.717 161.749 130.633 162.267 130.633 162.855V168.021H129.604V158.487ZM143.128 168.21C142.456 168.21 141.847 168.098 141.301 167.874C140.755 167.65 140.286 167.328 139.894 166.908C139.502 166.474 139.194 165.956 138.97 165.354C138.76 164.738 138.655 164.045 138.655 163.275C138.655 162.463 138.76 161.749 138.97 161.133C139.194 160.503 139.495 159.978 139.873 159.558C140.265 159.124 140.713 158.802 141.217 158.592C141.721 158.368 142.267 158.256 142.855 158.256C143.401 158.256 143.905 158.347 144.367 158.529C144.843 158.711 145.256 158.984 145.606 159.348C145.956 159.712 146.229 160.174 146.425 160.734C146.621 161.294 146.719 161.952 146.719 162.708C146.719 162.82 146.719 162.918 146.719 163.002C146.719 163.072 146.712 163.163 146.698 163.275H139.642C139.656 163.961 139.754 164.563 139.936 165.081C140.118 165.585 140.363 166.005 140.671 166.341C140.979 166.677 141.343 166.929 141.763 167.097C142.183 167.265 142.645 167.349 143.149 167.349C143.555 167.349 143.919 167.3 144.241 167.202C144.563 167.104 144.857 166.964 145.123 166.782C145.389 166.586 145.634 166.362 145.858 166.11L146.488 166.677C146.222 166.999 145.914 167.279 145.564 167.517C145.228 167.741 144.857 167.909 144.451 168.021C144.045 168.147 143.604 168.21 143.128 168.21ZM139.684 162.435H145.69C145.69 161.903 145.62 161.427 145.48 161.007C145.34 160.587 145.144 160.237 144.892 159.957C144.64 159.663 144.339 159.446 143.989 159.306C143.639 159.152 143.254 159.075 142.834 159.075C142.386 159.075 141.98 159.152 141.616 159.306C141.252 159.46 140.93 159.684 140.65 159.978C140.384 160.272 140.167 160.629 139.999 161.049C139.845 161.455 139.74 161.917 139.684 162.435ZM162.133 159.411H159.823V158.571H162.133V157.668C162.133 156.814 162.266 156.107 162.532 155.547C162.798 154.987 163.176 154.574 163.666 154.308C164.156 154.042 164.744 153.909 165.43 153.909C166.032 153.909 166.592 154.021 167.11 154.245C167.642 154.455 168.083 154.784 168.433 155.232L167.908 155.967L167.782 156.135L167.656 156.03C167.67 155.946 167.649 155.855 167.593 155.757C167.551 155.659 167.446 155.526 167.278 155.358C167.012 155.148 166.739 154.994 166.459 154.896C166.179 154.798 165.85 154.749 165.472 154.749C164.982 154.749 164.562 154.847 164.212 155.043C163.862 155.239 163.589 155.547 163.393 155.967C163.211 156.387 163.12 156.954 163.12 157.668V158.571H166.501V159.411H163.12V168H162.133V159.411ZM173.788 168.231C173.424 168.231 173.074 168.175 172.738 168.063C172.416 167.965 172.115 167.804 171.835 167.58C171.569 167.356 171.338 167.076 171.142 166.74C170.946 166.39 170.792 165.977 170.68 165.501C170.582 165.025 170.533 164.479 170.533 163.863L170.554 158.487H171.541V163.863C171.541 164.521 171.604 165.081 171.73 165.543C171.87 165.991 172.052 166.348 172.276 166.614C172.514 166.88 172.787 167.076 173.095 167.202C173.403 167.314 173.739 167.37 174.103 167.37C174.495 167.37 174.859 167.3 175.195 167.16C175.545 167.006 175.853 166.782 176.119 166.488C176.385 166.18 176.595 165.802 176.749 165.354C176.903 164.906 176.98 164.381 176.98 163.779V158.487H177.967V166.278C177.967 166.53 177.974 166.817 177.988 167.139C178.016 167.461 178.079 167.748 178.177 168H177.19C177.12 167.832 177.071 167.65 177.043 167.454C177.015 167.258 176.994 167.062 176.98 166.866C176.98 166.656 176.98 166.474 176.98 166.32C176.84 166.586 176.672 166.831 176.476 167.055C176.294 167.279 176.07 167.482 175.804 167.664C175.552 167.832 175.258 167.965 174.922 168.063C174.586 168.175 174.208 168.231 173.788 168.231ZM181.159 168V158.487H182.167V160.503C182.377 160.041 182.65 159.649 182.986 159.327C183.336 158.991 183.735 158.732 184.183 158.55C184.631 158.368 185.1 158.277 185.59 158.277C186.108 158.277 186.577 158.403 186.997 158.655C187.431 158.893 187.781 159.299 188.047 159.873C188.313 160.447 188.446 161.245 188.446 162.267V168H187.438V162.309C187.438 161.525 187.354 160.909 187.186 160.461C187.018 159.999 186.773 159.67 186.451 159.474C186.129 159.278 185.744 159.18 185.296 159.18C184.876 159.18 184.477 159.271 184.099 159.453C183.735 159.621 183.406 159.859 183.112 160.167C182.818 160.461 182.587 160.811 182.419 161.217C182.251 161.623 182.167 162.071 182.167 162.561V168H181.159Z" fill="#E9E7EF"/>
<line x1="375.5" y1="2.18557e-08" x2="375.5" y2="663" stroke="white"/>
<g clip-path="url(#clip2_22_24)">
<path d="M379.195 597.582C329.934 597.582 290 533.205 290 453.791C290 374.377 329.934 310 379.195 310V597.582Z" fill="#D5CFF4"/>
</g>
<g clip-path="url(#clip3_22_24)">
<g clip-path="url(#clip4_22_24)">
<path d="M50.1699 641.772C32.1069 641.772 15.0699 635.978 -7.62939e-05 625.672L-7.62939e-05 369.036C14.5531 359.301 31.6529 354.071 49.1619 354C49.1619 383.279 50.1699 580.068 50.1699 641.772Z" fill="#FFAFDF"/>
</g>
<g clip-path="url(#clip5_22_24)">
<path d="M50 418C111.665 418 161.655 482.377 161.655 561.791C161.655 641.205 111.665 705.582 50 705.582L50 418Z" fill="#FFAFDF"/>
</g>
<g clip-path="url(#clip6_22_24)">
<path d="M379.195 597.582C329.934 597.582 290 533.205 290 453.791C290 374.377 329.934 310 379.195 310V597.582Z" fill="#D5CFF4"/>
</g>
<g clip-path="url(#clip7_22_24)">
<path d="M376 221C394.62 221 412.183 226.794 427.717 237.1V493.736C412.614 503.501 395.024 508.721 377.039 508.772C377.039 479.493 376 282.704 376 221Z" fill="#D5CFF4"/>
</g>
<path d="M185.978 836.12H190.706L195.434 847.232L195.626 847.184L195.338 843.272V836.12H198.914V851H194.186L189.458 839.888L189.266 839.936L189.554 843.848V851H185.978V836.12ZM208.345 851.24C206.329 851.24 204.769 851.016 203.665 850.568C202.577 850.104 202.033 849.28 202.033 848.096V836.12H213.193V839.408H205.633V842.072H211.969V845.216H205.633V847.712C206.449 847.872 207.393 847.952 208.465 847.952C210.081 847.952 211.545 847.8 212.857 847.496L213.313 850.712C211.937 851.064 210.281 851.24 208.345 851.24ZM215.186 850.544C216.21 848.336 217.714 846.04 219.698 843.656C217.746 841.336 216.242 839.04 215.186 836.768L218.858 836.12C219.306 837.192 219.77 838.152 220.25 839C220.73 839.832 221.338 840.816 222.074 841.952H222.53C223.17 841.056 223.746 840.16 224.258 839.264C224.77 838.352 225.282 837.304 225.794 836.12L229.466 836.768C228.41 839.04 226.906 841.336 224.954 843.656C226.938 846.04 228.442 848.336 229.466 850.544L225.794 851.192C225.33 850.12 224.866 849.184 224.402 848.384C223.954 847.568 223.33 846.536 222.53 845.288H222.122C221.45 846.28 220.858 847.232 220.346 848.144C219.85 849.04 219.354 850.056 218.858 851.192L215.186 850.544ZM235.614 839.48H230.862V836.12H243.966V839.48H239.214V851H235.614V839.48Z" fill="#5F4AB1"/>
<path d="M201.165 0C209.303 27.6661 209.719 57.0309 202.369 84.9167C195.02 112.802 180.184 138.147 159.467 158.208C138.75 178.27 112.942 192.283 84.8341 198.733C56.7265 205.183 27.3903 203.823 0 194.8V0H201.165Z" fill="#F68C8C"/>
<path d="M107.071 168V154.917H107.806L111.25 161.448L114.757 154.896H115.45V168H114.484V157.29L111.439 162.813H110.956L108.037 157.311V168H107.071ZM121.75 168.168C120.882 168.168 120.133 167.958 119.503 167.538C118.873 167.118 118.383 166.537 118.033 165.795C117.697 165.053 117.529 164.199 117.529 163.233C117.529 162.253 117.697 161.392 118.033 160.65C118.383 159.908 118.873 159.327 119.503 158.907C120.133 158.487 120.882 158.277 121.75 158.277C122.618 158.277 123.367 158.487 123.997 158.907C124.627 159.327 125.11 159.908 125.446 160.65C125.796 161.392 125.971 162.253 125.971 163.233C125.971 164.199 125.796 165.053 125.446 165.795C125.11 166.537 124.627 167.118 123.997 167.538C123.367 167.958 122.618 168.168 121.75 168.168ZM121.75 167.286C122.422 167.286 122.989 167.111 123.451 166.761C123.927 166.411 124.291 165.928 124.543 165.312C124.795 164.696 124.921 163.996 124.921 163.212C124.921 162.386 124.781 161.672 124.501 161.07C124.235 160.454 123.864 159.978 123.388 159.642C122.926 159.306 122.38 159.138 121.75 159.138C121.106 159.138 120.546 159.313 120.07 159.663C119.594 160.013 119.23 160.496 118.978 161.112C118.726 161.714 118.6 162.414 118.6 163.212C118.6 164.01 118.726 164.717 118.978 165.333C119.23 165.949 119.594 166.432 120.07 166.782C120.546 167.118 121.106 167.286 121.75 167.286ZM129.604 158.487H130.675L130.612 161.28L130.444 161.133C130.528 160.685 130.675 160.286 130.885 159.936C131.109 159.572 131.375 159.264 131.683 159.012C132.005 158.76 132.348 158.571 132.712 158.445C133.09 158.319 133.475 158.256 133.867 158.256C134.343 158.256 134.819 158.347 135.295 158.529C135.771 158.697 136.177 158.956 136.513 159.306L136.03 160.083L135.946 160.251L135.799 160.167C135.799 160.069 135.771 159.978 135.715 159.894C135.659 159.81 135.533 159.698 135.337 159.558C135.085 159.404 134.84 159.299 134.602 159.243C134.378 159.173 134.133 159.138 133.867 159.138C133.433 159.138 133.02 159.222 132.628 159.39C132.236 159.558 131.886 159.803 131.578 160.125C131.284 160.447 131.053 160.839 130.885 161.301C130.717 161.749 130.633 162.267 130.633 162.855V168.021H129.604V158.487ZM143.128 168.21C142.456 168.21 141.847 168.098 141.301 167.874C140.755 167.65 140.286 167.328 139.894 166.908C139.502 166.474 139.194 165.956 138.97 165.354C138.76 164.738 138.655 164.045 138.655 163.275C138.655 162.463 138.76 161.749 138.97 161.133C139.194 160.503 139.495 159.978 139.873 159.558C140.265 159.124 140.713 158.802 141.217 158.592C141.721 158.368 142.267 158.256 142.855 158.256C143.401 158.256 143.905 158.347 144.367 158.529C144.843 158.711 145.256 158.984 145.606 159.348C145.956 159.712 146.229 160.174 146.425 160.734C146.621 161.294 146.719 161.952 146.719 162.708C146.719 162.82 146.719 162.918 146.719 163.002C146.719 163.072 146.712 163.163 146.698 163.275H139.642C139.656 163.961 139.754 164.563 139.936 165.081C140.118 165.585 140.363 166.005 140.671 166.341C140.979 166.677 141.343 166.929 141.763 167.097C142.183 167.265 142.645 167.349 143.149 167.349C143.555 167.349 143.919 167.3 144.241 167.202C144.563 167.104 144.857 166.964 145.123 166.782C145.389 166.586 145.634 166.362 145.858 166.11L146.488 166.677C146.222 166.999 145.914 167.279 145.564 167.517C145.228 167.741 144.857 167.909 144.451 168.021C144.045 168.147 143.604 168.21 143.128 168.21ZM139.684 162.435H145.69C145.69 161.903 145.62 161.427 145.48 161.007C145.34 160.587 145.144 160.237 144.892 159.957C144.64 159.663 144.339 159.446 143.989 159.306C143.639 159.152 143.254 159.075 142.834 159.075C142.386 159.075 141.98 159.152 141.616 159.306C141.252 159.46 140.93 159.684 140.65 159.978C140.384 160.272 140.167 160.629 139.999 161.049C139.845 161.455 139.74 161.917 139.684 162.435ZM162.133 159.411H159.823V158.571H162.133V157.668C162.133 156.814 162.266 156.107 162.532 155.547C162.798 154.987 163.176 154.574 163.666 154.308C164.156 154.042 164.744 153.909 165.43 153.909C166.032 153.909 166.592 154.021 167.11 154.245C167.642 154.455 168.083 154.784 168.433 155.232L167.908 155.967L167.782 156.135L167.656 156.03C167.67 155.946 167.649 155.855 167.593 155.757C167.551 155.659 167.446 155.526 167.278 155.358C167.012 155.148 166.739 154.994 166.459 154.896C166.179 154.798 165.85 154.749 165.472 154.749C164.982 154.749 164.562 154.847 164.212 155.043C163.862 155.239 163.589 155.547 163.393 155.967C163.211 156.387 163.12 156.954 163.12 157.668V158.571H166.501V159.411H163.12V168H162.133V159.411ZM173.788 168.231C173.424 168.231 173.074 168.175 172.738 168.063C172.416 167.965 172.115 167.804 171.835 167.58C171.569 167.356 171.338 167.076 171.142 166.74C170.946 166.39 170.792 165.977 170.68 165.501C170.582 165.025 170.533 164.479 170.533 163.863L170.554 158.487H171.541V163.863C171.541 164.521 171.604 165.081 171.73 165.543C171.87 165.991 172.052 166.348 172.276 166.614C172.514 166.88 172.787 167.076 173.095 167.202C173.403 167.314 173.739 167.37 174.103 167.37C174.495 167.37 174.859 167.3 175.195 167.16C175.545 167.006 175.853 166.782 176.119 166.488C176.385 166.18 176.595 165.802 176.749 165.354C176.903 164.906 176.98 164.381 176.98 163.779V158.487H177.967V166.278C177.967 166.53 177.974 166.817 177.988 167.139C178.016 167.461 178.079 167.748 178.177 168H177.19C177.12 167.832 177.071 167.65 177.043 167.454C177.015 167.258 176.994 167.062 176.98 166.866C176.98 166.656 176.98 166.474 176.98 166.32C176.84 166.586 176.672 166.831 176.476 167.055C176.294 167.279 176.07 167.482 175.804 167.664C175.552 167.832 175.258 167.965 174.922 168.063C174.586 168.175 174.208 168.231 173.788 168.231ZM181.159 168V158.487H182.167V160.503C182.377 160.041 182.65 159.649 182.986 159.327C183.336 158.991 183.735 158.732 184.183 158.55C184.631 158.368 185.1 158.277 185.59 158.277C186.108 158.277 186.577 158.403 186.997 158.655C187.431 158.893 187.781 159.299 188.047 159.873C188.313 160.447 188.446 161.245 188.446 162.267V168H187.438V162.309C187.438 161.525 187.354 160.909 187.186 160.461C187.018 159.999 186.773 159.67 186.451 159.474C186.129 159.278 185.744 159.18 185.296 159.18C184.876 159.18 184.477 159.271 184.099 159.453C183.735 159.621 183.406 159.859 183.112 160.167C182.818 160.461 182.587 160.811 182.419 161.217C182.251 161.623 182.167 162.071 182.167 162.561V168H181.159Z" fill="#E9E7EF"/>
<line x1="375.5" y1="2.18557e-08" x2="375.5" y2="663" stroke="white"/>
<circle cx="315" cy="133" r="28" fill="#F9E5AF"/>
<circle cx="427.5" cy="854.5" r="30.5" fill="#9EDFFF"/>
</g>
<circle cx="315" cy="133" r="28" fill="#F9E5AF"/>
<defs>
<clipPath id="clip0_22_24">
<rect width="50.17" height="287.772" fill="white" transform="translate(0 354)"/>
</clipPath>
<clipPath id="clip1_22_24">
<rect width="51.717" height="287.772" fill="white" transform="translate(376 221)"/>
</clipPath>
<clipPath id="clip2_22_24">
<rect width="89.195" height="287.582" fill="white" transform="translate(289 309)"/>
</clipPath>
<clipPath id="clip3_22_24">
<rect width="428" height="926" fill="white"/>
</clipPath>
<clipPath id="clip4_22_24">
<rect width="50.17" height="287.772" fill="white" transform="translate(0 354)"/>
</clipPath>
<clipPath id="clip5_22_24">
<rect width="111.655" height="287.582" fill="white" transform="translate(50 418)"/>
</clipPath>
<clipPath id="clip6_22_24">
<rect width="89.195" height="287.582" fill="white" transform="translate(289 309)"/>
</clipPath>
<clipPath id="clip7_22_24">
<rect width="51.717" height="287.772" fill="white" transform="translate(376 221)"/>
</clipPath>
</defs>
</svg>
