<svg width="316" height="242" viewBox="0 0 316 242" fill="none" xmlns="http://www.w3.org/2000/svg">
<g clip-path="url(#clip0_304_190)">
<path d="M294.621 208.614L295.161 196.448C300.792 193.434 307.073 191.841 313.457 191.809C304.67 199.005 305.768 212.877 299.81 222.554C297.929 225.558 295.397 228.099 292.402 229.99C289.407 231.881 286.026 233.072 282.508 233.475L275.155 237.985C274.146 232.351 274.368 226.564 275.807 221.024C277.246 215.484 279.866 210.322 283.488 205.894C285.545 203.43 287.903 201.236 290.507 199.362C292.268 204.014 294.621 208.614 294.621 208.614Z" fill="#FF3A3A"/>
<path d="M183.11 241.014C179.364 240.747 178.387 241.487 172.721 241.014H162.332L163.683 216.111L180.038 222.675L261.315 224.674L261.267 224.812C261.23 224.918 257.622 235.491 260.442 239.495L260.559 239.66L260.331 239.662L185.773 240.347C184.959 240.355 183.917 241.071 183.11 241.014Z" fill="#F2F2F2"/>
<path d="M187.325 241.339C180.09 240.823 172.598 243.641 166.346 240.46L161.347 240.763L161.333 240.721C161.294 240.606 158.933 221.997 163.706 214.782L163.917 214.464L164.081 216.174L162.507 239.354L165.995 238.188C174.465 242.182 184.539 239.544 194.233 239.508L260.21 239.263C261.592 239.259 262.743 240.205 262.78 241.372L262.784 241.486L191.31 241.481C189.978 241.481 188.649 241.434 187.325 241.339Z" fill="#CCCCCC"/>
<path d="M256.732 229.696L182.486 228.218L182.41 228.19L164.868 221.605L165.2 220.719L182.666 227.276L256.751 228.75L256.732 229.696Z" fill="#FF3A3A"/>
<path d="M256.336 233.678L182.09 232.2L182.014 232.172L164.472 225.587L164.804 224.701L182.27 231.258L256.355 232.732L256.336 233.678Z" fill="#E6E6E6"/>
<path d="M255.94 237.661L181.694 236.182L181.618 236.154L164.076 229.568L164.407 228.682L181.874 235.24L255.959 236.715L255.94 237.661Z" fill="#FF3A3A"/>
<path d="M187.838 224.931C180.954 224.465 174.243 222.568 168.131 219.361L162.985 216.627L163.119 215.276C163.157 215.077 163.266 214.9 163.426 214.777C163.586 214.655 163.786 214.596 163.987 214.613L164.441 214.618L233.683 215.639C238.215 215.695 242.705 216.511 246.968 218.054L262.054 223.54L262.046 223.62C261.92 224.893 260.638 225.877 259.128 225.86L190.923 225.059C189.891 225.047 188.863 225.004 187.838 224.931Z" fill="#FF3A3A"/>
<path d="M261.909 223.833L261.894 223.832L178.861 221.926L178.803 221.9L163.833 214.956L163.985 214.723L164.439 214.729L179 221.486L261.263 223.373L261.922 223.388L261.909 223.833Z" fill="#CCCCCC"/>
<path d="M197.358 215.215L196.304 215.2L172.508 214.847L171.381 214.832C176.818 220.63 188.84 222.08 206.461 219.834L197.358 215.215Z" fill="#CCCCCC"/>
<path d="M264.262 76.5379L265.714 79.9203L263.341 91.9321L239.138 88.5616L239.331 73.9142L239.817 70.7063L264.262 76.5379Z" fill="#FFB6B6"/>
<path d="M276.767 232.216H271.427L268.886 211.585H276.767V232.216Z" fill="#FFB6B6"/>
<path d="M260.884 239.198C260.884 239.804 261.125 240.385 261.552 240.813C261.98 241.242 262.56 241.483 263.165 241.483H273.324L275.075 237.862L275.755 241.483H279.584L278.508 228.55L276.767 228.448L270.919 228.1L269.977 228.041V231.704L261.869 237.315C261.565 237.526 261.316 237.807 261.145 238.135C260.973 238.463 260.883 238.828 260.884 239.198Z" fill="#2F2E41"/>
<path d="M227.411 208.566H222.071L218.93 178.193L228.964 177.593L227.411 208.566Z" fill="#FFB6B6"/>
<path d="M211.527 215.548C211.528 216.154 211.768 216.735 212.196 217.163C212.624 217.592 213.204 217.833 213.809 217.833H223.968L225.719 214.212L226.399 217.833H230.228L229.152 204.9L227.599 204.809L221.649 204.45L220.621 204.391V208.054L212.513 213.665C212.209 213.876 211.96 214.157 211.788 214.485C211.617 214.813 211.527 215.178 211.527 215.548V215.548Z" fill="#2F2E41"/>
<path d="M279.034 214.425H279.013L277.986 180.881C278.651 179.597 278.988 178.168 278.968 176.722C278.948 175.276 278.571 173.857 277.871 172.592L277.724 172.325L278.105 170.555C278.595 168.281 278.37 165.911 277.462 163.77L276.504 132.479C279.927 110.26 263.615 95.77 263.615 95.77L265.114 84.1245L238.731 84.7251L239.18 95.77L233.934 113.824C231.173 140.765 212.592 157.7 215.416 183.464C215.422 183.538 215.411 183.612 215.384 183.681C215.097 184.554 214.997 185.477 215.088 186.392C215.179 187.306 215.461 188.191 215.914 188.989C216.032 189.193 216.113 189.416 216.153 189.648C216.735 194.164 216.811 188.451 217.582 192.928L217.432 193.004C216.892 193.191 216.66 193.94 216.914 194.678C217.169 195.416 217.813 195.863 218.353 195.676L232.457 195.827C232.997 195.64 233.229 194.891 232.974 194.153C232.72 193.415 232.076 192.968 231.536 193.155L230.658 193.599L232.126 188.789L232.641 188.307C232.887 188.077 233.079 187.794 233.201 187.478C233.322 187.163 233.371 186.825 233.344 186.488C233.317 186.151 233.214 185.825 233.043 185.534C232.872 185.243 232.637 184.994 232.357 184.807L233.819 176.989L233.611 171.077L234.039 164.369L252.545 137.51L260.032 174.611L267.68 214.799C267.501 214.96 267.367 215.164 267.291 215.392C267.214 215.62 267.197 215.864 267.241 216.101C267.312 216.431 267.495 216.727 267.759 216.937C268.023 217.147 268.352 217.258 268.689 217.252H279.071C279.289 217.252 279.503 217.201 279.698 217.105C279.893 217.008 280.063 216.867 280.195 216.693C280.327 216.52 280.417 216.318 280.458 216.104C280.499 215.89 280.491 215.669 280.433 215.459C280.345 215.157 280.161 214.892 279.908 214.705C279.655 214.518 279.348 214.42 279.034 214.425V214.425Z" fill="#2F2E41"/>
<path d="M269.801 19.4594C269.802 21.601 269.278 23.7102 268.275 25.6016C267.272 27.4931 265.821 29.109 264.049 30.3075C262.277 31.506 260.238 32.2505 258.112 32.4756C255.985 32.7008 253.837 32.3996 251.854 31.5986C249.871 30.7977 248.114 29.5213 246.739 27.8817C245.363 26.2421 244.41 24.2893 243.964 22.1948C243.518 20.1003 243.592 17.9281 244.179 15.8688C244.767 13.8096 245.85 11.9263 247.334 10.3843L247.396 10.3216C247.501 10.2116 247.606 10.1017 247.715 9.99703C247.716 9.99704 247.717 9.99692 247.717 9.99666C247.718 9.9964 247.718 9.996 247.719 9.99551C247.719 9.99503 247.72 9.99444 247.72 9.9938C247.72 9.99316 247.72 9.99248 247.72 9.99179C247.87 9.88224 248.009 9.75775 248.133 9.62022C249.897 7.15208 251.896 5.08251 256.739 6.37545C263.711 8.23688 269.801 12.2318 269.801 19.4594Z" fill="#2F2E41"/>
<path d="M198.046 13.8583C198.017 14.5583 198.141 15.2563 198.41 15.9032C198.678 16.55 199.086 17.1299 199.602 17.6021C200.119 18.0742 200.733 18.4272 201.401 18.636C202.069 18.8448 202.774 18.9044 203.467 18.8107L237.154 46.5032L242.3 37.4442L207.568 13.072C207.334 11.916 206.684 10.8862 205.743 10.1779C204.801 9.46959 203.632 9.1319 202.459 9.22883C201.285 9.32575 200.188 9.85057 199.374 10.7038C198.561 11.5571 198.089 12.6795 198.046 13.8583V13.8583Z" fill="#FFB6B6"/>
<path d="M251.379 54.6699C251.379 54.6699 251.368 53.6726 246.013 53.7109C239.366 53.7585 221.058 44.1993 222.66 35.1966C221.899 35.5407 221.046 35.6217 220.235 35.4267C219.424 35.2318 218.7 34.7721 218.179 34.1199L227.091 25.5248C229.888 25.714 229.916 27.5885 229.677 28.6649L236.84 31.5158L255.495 42.2515L252.201 53.0353L251.379 54.6699Z" fill="#FF3A3A"/>
<path d="M253.521 33.458C259.57 33.458 264.474 28.5459 264.474 22.4866C264.474 16.4272 259.57 11.5151 253.521 11.5151C247.471 11.5151 242.567 16.4272 242.567 22.4866C242.567 28.5459 247.471 33.458 253.521 33.458Z" fill="#FFB7B7"/>
<path d="M238.466 77.0572C237.861 77.866 237.552 78.8586 237.591 79.8685C237.63 80.8784 238.015 81.8442 238.68 82.6037C238.686 82.9256 238.734 83.2367 239.189 84.39C239.249 84.5018 239.319 84.6078 239.398 84.7064C239.413 84.7305 239.429 84.7538 239.446 84.7762C239.926 85.3974 240.592 85.847 241.347 86.0582L261.398 91.6637L264.048 92.4039L264.514 92.5327L264.771 88.9066C265.368 88.4116 265.767 87.7192 265.898 86.9547C266.028 86.1902 265.882 85.4041 265.484 84.7386L265.114 84.1271L267.267 78.3285L267.476 77.7546L272.965 62.955L272.97 61.968L272.981 60.9489L273.035 53.836C273.037 51.5943 272.521 49.3825 271.527 47.374C270.533 45.3656 269.087 43.6153 267.305 42.2603C265.681 41.0173 263.808 40.1392 261.815 39.6855L261.772 39.6802L259.604 36.7567L250.805 37.6364L250.076 39.133L249.193 40.9354L242.815 44.7385L240.635 49.813L239.162 53.246C236.881 54.8874 235.521 56.9955 235.13 59.5059C234.294 64.8379 238.022 70.1751 238.466 70.7866L238.579 76.9071L238.466 77.0572Z" fill="#FF3A3A"/>
<path d="M264.984 25.3628C264.884 25.3471 264.785 25.3262 264.686 25.3104C262.977 25.0069 261.269 24.7086 259.565 24.3998L259.409 20.5323L257.345 23.9968C252.637 25.5616 248.232 24.6772 244.089 22.7251C242.722 22.0752 241.396 21.3429 240.118 20.5323C239.697 13.9913 242.337 9.80389 247.25 10.243C247.43 10.2591 247.558 10.0756 247.715 9.99702C247.716 9.99703 247.717 9.99691 247.717 9.99665C247.718 9.99639 247.718 9.996 247.719 9.99551C247.719 9.99502 247.72 9.99444 247.72 9.9938C247.72 9.99316 247.72 9.99247 247.72 9.99178C247.987 9.86618 248.259 9.74582 248.53 9.63594C250.657 8.80329 252.977 8.59242 255.219 9.02785C257.461 9.46327 259.533 10.5271 261.196 12.0957C264.54 15.2935 266.044 20.5741 264.984 25.3628Z" fill="#2F2E41"/>
<path d="M264.686 25.3105C264.686 25.3105 261.441 13.1791 247.532 10.3791C247.517 10.3739 247.464 10.353 247.397 10.3216C247.355 10.2954 247.302 10.2692 247.25 10.2431C247.407 10.1541 247.558 10.0756 247.715 9.99706C247.716 9.99707 247.717 9.99694 247.717 9.99668C247.718 9.99642 247.718 9.99603 247.719 9.99554C247.719 9.99505 247.72 9.99447 247.72 9.99383C247.72 9.99319 247.72 9.99251 247.72 9.99182C247.856 9.86622 247.992 9.74062 248.133 9.62026L248.53 9.63597C248.53 9.63597 262.486 7.42218 264.686 25.3105Z" fill="#FD6584"/>
<path d="M270.037 101.784C269.779 102.004 269.466 102.15 269.132 102.204C268.797 102.258 268.454 102.219 268.14 102.091C267.516 101.826 266.961 101.42 266.52 100.904C264.718 99.011 263.431 96.687 262.781 94.154L263.382 93.0833C263.146 91.7629 263.368 90.4015 264.011 89.2248C264.653 88.0482 265.679 87.1273 266.916 86.6148C267.621 86.3157 268.401 86.2477 269.146 86.4206C269.516 86.5125 269.854 86.7027 270.124 86.971C270.395 87.2394 270.588 87.5759 270.683 87.9451C270.914 89.0905 269.962 90.1246 268.997 90.7822C267.317 91.9246 265.374 92.6209 263.351 92.8056C265.825 94.2024 267.964 96.125 269.617 98.4382C270 98.9207 270.281 99.475 270.446 100.068C270.526 100.366 270.53 100.679 270.458 100.978C270.387 101.278 270.242 101.555 270.037 101.784Z" fill="#2F2E41"/>
<path d="M131.584 241.873H315.411C315.567 241.873 315.717 241.81 315.828 241.7C315.938 241.589 316 241.439 316 241.283C316 241.126 315.938 240.976 315.828 240.866C315.717 240.755 315.567 240.693 315.411 240.693H131.584C131.427 240.693 131.278 240.755 131.167 240.866C131.057 240.976 130.995 241.126 130.995 241.283C130.995 241.439 131.057 241.589 131.167 241.7C131.278 241.81 131.427 241.873 131.584 241.873V241.873V241.873Z" fill="#CCCCCC"/>
<path d="M180.404 90.2338V90.542C179.742 89.7649 179.067 88.9944 178.398 88.2239C178.117 87.9024 177.836 87.5808 177.555 87.2592C176.364 85.9059 175.167 84.557 173.963 83.2126C172.753 81.8727 171.542 80.5328 170.318 79.1996C170.024 78.878 169.729 78.5564 169.428 78.2349C169.187 77.9646 168.926 77.7137 168.646 77.4844C168.363 77.249 168.039 77.0694 167.689 76.9551C167.287 76.8435 166.863 76.839 166.459 76.9418C165.997 77.049 165.556 77.2165 165.107 77.3572C164.646 77.5113 164.191 77.6587 163.73 77.806C162.806 78.1076 161.89 78.4091 160.967 78.7105C160.956 78.7151 160.944 78.7173 160.932 78.7173C160.92 78.7172 160.908 78.7147 160.897 78.7101C160.886 78.7054 160.876 78.6986 160.868 78.69C160.859 78.6814 160.853 78.6713 160.848 78.6602L160.847 78.6569C160.841 78.6442 160.839 78.6305 160.84 78.6168C160.84 78.6031 160.844 78.5897 160.85 78.5775C160.857 78.5654 160.866 78.5548 160.877 78.5465C160.888 78.5382 160.9 78.5325 160.914 78.5296C161.141 78.456 161.375 78.3823 161.609 78.3085C162.539 78.0003 163.462 77.6989 164.392 77.3975C164.853 77.2433 165.315 77.0959 165.776 76.9485C166.204 76.7857 166.656 76.6951 167.114 76.6805C167.861 76.7343 168.562 77.0638 169.08 77.6051C169.368 77.8731 169.629 78.1544 169.89 78.4425C170.197 78.7775 170.505 79.1125 170.813 79.4475C172.05 80.8008 173.279 82.1586 174.498 83.5208C175.722 84.8876 176.935 86.2565 178.137 87.6277C178.224 87.7282 178.311 87.8288 178.398 87.9292C179.073 88.6929 179.735 89.4634 180.404 90.2338Z" fill="white"/>
<path d="M168.542 78.7188C168.289 78.3927 167.952 78.142 167.568 77.9938L167.188 78.0071C170.173 82.6601 174.084 86.6466 178.676 89.7174C175.298 86.0512 171.92 82.385 168.542 78.7188Z" fill="white"/>
<path d="M230.842 127.074L215.69 45.8077C215.43 44.4681 214.724 43.2564 213.688 42.3714C212.651 41.4864 211.344 40.9805 209.983 40.9367C209.86 40.934 209.737 40.934 209.615 40.9367L199.293 41.3076L198.182 41.3485L193.03 41.534L191.919 41.5722L188.606 41.6922L121.787 44.095C121.686 44.1004 121.583 44.1004 121.482 44.0977L106.509 43.784L100.968 43.6695L100.791 43.6668L96.7015 43.5795L61.0649 42.8376L51.6167 42.6385L46.9579 42.5431L45.8415 42.5185L40.5293 42.4094L39.4156 42.3849L33.9808 42.2731L32.8672 42.2485L26.896 42.1231L25.9593 42.104L20.6334 41.9922L19.7921 41.9758H19.6696C18.2557 41.9816 16.8893 42.4879 15.8121 43.4052C14.7348 44.3225 14.016 45.5918 13.7828 46.9886L0.0787295 131.317C-0.0604344 132.172 -0.0125219 133.046 0.219137 133.88C0.450796 134.714 0.860654 135.487 1.42035 136.146C1.98004 136.806 2.67617 137.336 3.46051 137.699C4.24486 138.062 5.09867 138.25 5.96279 138.25H84.6638C85.8221 138.253 86.9494 138.626 87.8822 139.314L89.3743 140.421C90.4027 141.179 91.6452 141.59 92.9222 141.594C108.122 137.575 124.103 137.575 139.303 141.594C140.087 141.596 140.863 141.442 141.587 141.142C142.311 140.841 142.968 140.4 143.521 139.843C144.466 138.897 145.726 138.334 147.06 138.264L225.293 134.135C226.141 134.09 226.971 133.865 227.725 133.473C228.479 133.082 229.141 132.533 229.667 131.865C230.192 131.196 230.569 130.423 230.772 129.596C230.974 128.77 230.998 127.91 230.842 127.074V127.074Z" fill="#FF3A3A"/>
<path d="M209.403 114.401C209.303 117.155 208.115 119.756 206.1 121.633C204.086 123.51 201.409 124.508 198.66 124.41C194.117 124.249 188.696 124.168 182.812 124.291C163.597 124.703 139.457 127.352 124.936 136.878C123.111 138.078 120.955 138.67 118.774 138.571C118.613 138.562 118.458 138.552 118.297 138.538C116.036 138.331 113.906 137.385 112.234 135.847C104.234 128.515 85.8883 119.637 43.8935 119.013C43.7188 119.013 43.5488 119.003 43.3788 118.994C42.0186 118.908 40.6887 118.555 39.4649 117.954C38.2412 117.353 37.1477 116.516 36.2469 115.492C35.3461 114.468 34.6557 113.275 34.2151 111.984C33.7746 110.692 33.5925 109.326 33.6793 107.963L37.8066 42.3537L38.4252 32.52L39.5113 15.317C39.6208 13.5846 40.3847 11.9589 41.6477 10.7702C42.9108 9.58149 44.5782 8.91902 46.3113 8.91736H46.3538L71.3722 9.06399C81.9122 9.54172 90.6421 10.8866 97.5617 13.0987C99.9253 13.8328 102.225 14.7599 104.437 15.8705C107.459 17.3379 110.174 19.3686 112.437 21.8539C113.846 23.4416 115.769 24.4815 117.867 24.7912C118.193 24.8399 118.521 24.8699 118.85 24.8811C120.785 24.9613 122.694 24.4139 124.294 23.3202C140.638 12.3514 173.944 11.5189 192.337 11.9919C194.909 12.052 197.367 13.069 199.232 14.8449C201.096 16.6208 202.234 19.0283 202.424 21.5985L203.17 31.3849L203.911 41.1428L208.189 97.5386L209.379 113.228C209.409 113.618 209.416 114.01 209.403 114.401V114.401Z" fill="#F2F2F2"/>
<path d="M50.1177 32.0044C65.1944 27.1863 82.0145 28.4618 96.2976 35.2496C100.373 37.1762 104.222 39.5507 107.773 42.3292C108.778 43.119 110.208 41.7063 109.192 40.908C96.0734 30.716 79.5899 25.8743 63.0536 27.3558C58.4787 27.7658 53.9622 28.6747 49.5842 30.0663C48.3586 30.4579 48.8824 32.3991 50.1176 32.0044H50.1177Z" fill="#3F3D56"/>
<path d="M133.08 43.109C147.097 35.7291 163.883 34.1198 179.123 38.3089C183.468 39.5004 187.667 41.1727 191.643 43.2949C192.782 43.9036 193.797 42.1693 192.656 41.5595C178.13 33.796 160.694 32.0088 144.832 36.3365C140.407 37.5459 136.126 39.2349 132.067 41.3735C130.923 41.9755 131.936 43.7109 133.08 43.109Z" fill="#3F3D56"/>
<path d="M133.08 56.5082C147.097 49.1283 163.883 47.519 179.123 51.7081C183.468 52.8996 187.667 54.5719 191.643 56.6941C192.782 57.3028 193.797 55.5684 192.656 54.9586C178.13 47.1952 160.694 45.408 144.832 49.7357C140.407 50.9451 136.126 52.6341 132.067 54.7727C130.923 55.3747 131.936 57.11 133.08 56.5081L133.08 56.5082Z" fill="#3F3D56"/>
<path d="M193.147 69.1886C193.157 69.0161 193.116 68.8444 193.027 68.6958C192.939 68.5473 192.808 68.4287 192.652 68.3555C181.016 62.2524 167.822 59.777 154.769 61.248C154.688 61.2546 154.612 61.2677 154.524 61.2743H154.521C154.44 61.2815 154.36 61.2935 154.281 61.3104C146.518 62.2052 138.987 64.5304 132.067 68.1686C131.916 68.2586 131.791 68.3864 131.705 68.5393C131.618 68.6923 131.573 68.8652 131.573 69.0411V94.0371C131.575 94.1909 131.613 94.3421 131.682 94.4793C131.752 94.6165 131.851 94.7361 131.974 94.829C132.096 94.9219 132.238 94.9857 132.389 95.0156C132.539 95.0454 132.695 95.0406 132.843 95.0013C133.151 94.9128 133.459 94.8275 133.773 94.7455C140.768 92.849 147.949 91.7238 155.189 91.3902C155.342 91.3836 155.496 91.3771 155.657 91.3705C161.553 91.1168 167.46 91.3296 173.323 92.0067C173.446 92.0137 173.568 92.0269 173.689 92.0461C173.991 92.0789 174.298 92.115 174.6 92.1543C174.721 92.1675 174.836 92.1806 174.947 92.2003C176.119 92.3478 177.282 92.5151 178.447 92.6955C180.13 92.9645 181.813 93.264 183.497 93.5942C183.601 93.6139 183.709 93.6402 183.817 93.6598C186.519 94.1977 189.207 94.8209 191.883 95.5097C192.032 95.5482 192.187 95.5523 192.338 95.5217C192.489 95.4912 192.631 95.4267 192.753 95.3333C192.875 95.2398 192.975 95.1197 193.044 94.9821C193.114 94.8445 193.151 94.6929 193.153 94.5388V69.228C193.154 69.2145 193.152 69.201 193.147 69.1886V69.1886Z" fill="#3F3D56"/>
<path d="M156.342 62.611C155.607 62.2504 154.765 62.1762 153.978 62.403C153.631 62.5335 153.313 62.7318 153.042 62.9865C152.772 63.2411 152.555 63.547 152.403 63.8864C152.131 64.5372 151.956 65.2249 151.885 65.927C151.843 66.2032 151.841 66.5517 152.118 66.6806C152.219 66.7172 152.327 66.7255 152.432 66.7047C152.537 66.6839 152.635 66.6347 152.714 66.5625C152.857 66.4212 152.975 66.2564 153.062 66.0752C153.544 65.3252 154.206 64.7089 154.988 64.2831C155.77 63.8573 156.646 63.6357 157.536 63.6388L158.277 63.9346C157.694 63.4088 157.043 62.9636 156.342 62.611V62.611Z" fill="#FF6582"/>
<path d="M164.36 68.3722C163.785 67.5245 163.104 66.6194 162.037 66.3426C160.802 66.022 159.533 66.6588 158.456 67.2872C155.255 69.1546 152.155 71.191 149.169 73.3878L149.172 73.4207L156.102 72.9946C157.771 72.892 159.498 72.7753 160.973 72.0713C161.502 71.7387 162.094 71.518 162.712 71.4226C163.095 71.4434 163.471 71.54 163.817 71.7069C164.162 71.8738 164.472 72.1076 164.727 72.3949C167.921 75.4271 168.845 80.0641 172.428 82.7282C170.148 77.7234 167.449 72.9209 164.36 68.3722V68.3722Z" fill="white"/>
<path d="M155.658 91.37C155.498 91.3767 155.344 91.3834 155.19 91.3901C154.073 90.9881 152.929 90.633 151.772 90.3248C151.023 90.1238 150.26 89.943 149.498 89.7889C148.635 89.6014 147.765 89.4539 146.896 89.3266C145.24 89.0854 143.572 88.9445 141.899 88.9046C141.887 88.9059 141.874 88.9046 141.862 88.9007C141.85 88.8968 141.839 88.8904 141.829 88.8818C141.82 88.8733 141.812 88.8629 141.807 88.8512C141.802 88.8395 141.799 88.8269 141.799 88.8141C141.799 88.8013 141.802 88.7887 141.807 88.7771C141.812 88.7654 141.82 88.755 141.829 88.7464C141.839 88.7379 141.85 88.7314 141.862 88.7275C141.874 88.7236 141.887 88.7223 141.899 88.7237C142.113 88.7237 142.327 88.7304 142.535 88.7438C144.211 88.8058 145.882 88.9691 147.538 89.2329C148.401 89.3735 149.264 89.541 150.12 89.7286C150.896 89.9028 151.671 90.0971 152.434 90.3115C153.524 90.6196 154.599 90.9725 155.658 91.37Z" fill="white"/>
<path d="M174.948 92.2007C174.834 92.1806 174.72 92.1672 174.6 92.1539C174.139 91.772 173.67 91.4102 173.182 91.0551C172.573 90.6129 171.945 90.1976 171.303 89.809C169.881 88.9444 168.396 88.1874 166.861 87.5445C164.435 86.5325 161.924 85.7388 159.357 85.1728C156.429 84.5303 153.465 84.065 150.481 83.7794C147.498 83.4711 144.501 83.2836 141.505 83.096C141.378 83.0893 141.371 82.9017 141.505 82.9084C141.879 82.9352 142.254 82.9552 142.635 82.9821C145.665 83.1697 148.695 83.3841 151.705 83.7258C154.689 84.0462 157.65 84.5609 160.567 85.2666C163.058 85.8815 165.489 86.7178 167.831 87.7656C169.178 88.3719 170.483 89.068 171.737 89.8492C172.533 90.3516 173.303 90.8876 174.038 91.4571C174.346 91.6983 174.654 91.9395 174.948 92.2007Z" fill="white"/>
<path d="M173.691 92.0466C173.569 92.027 173.446 92.0135 173.323 92.0064C173.182 91.8925 173.035 91.7853 172.888 91.6781C171.858 90.9399 170.784 90.2664 169.671 89.6615C168.66 89.1113 167.622 88.6126 166.56 88.1675C164.135 87.1525 161.623 86.3587 159.056 85.7959C156.128 85.1534 153.164 84.688 150.18 84.4024C147.197 84.0942 144.2 83.9067 141.204 83.719C141.077 83.7056 141.077 83.5247 141.204 83.5314C141.585 83.5583 141.96 83.5783 142.334 83.6051C145.364 83.7927 148.394 84.0071 151.404 84.3488C154.388 84.6692 157.349 85.1839 160.266 85.8897C162.757 86.5034 165.188 87.3397 167.53 88.3887C168.413 88.7906 169.276 89.2261 170.119 89.7018C171.368 90.3891 172.563 91.1731 173.691 92.0466Z" fill="white"/>
<path d="M183.817 93.6613C183.71 93.6412 183.603 93.6144 183.496 93.5943C183.376 93.467 183.262 93.333 183.148 93.199C182.573 92.5357 182.004 91.8657 181.443 91.1891C179.229 88.5495 177.128 85.8294 175.149 83.0558C173.45 80.6841 171.838 78.2655 170.313 75.8001C169.584 74.6343 168.881 73.4552 168.192 72.2626C167.657 71.3382 167.136 70.4114 166.627 69.4824C166.48 69.2144 166.34 68.9463 166.199 68.6783C165.871 68.0485 165.544 67.4121 165.196 66.7891C164.818 66.0257 164.263 65.3641 163.577 64.8596C163.235 64.6298 162.838 64.4935 162.427 64.4643C161.847 64.4665 161.277 64.6139 160.768 64.893C157.026 66.6386 153.496 68.8078 150.247 71.3582C147.074 73.8304 144.204 76.6708 141.699 79.8198C141.619 79.9136 141.445 79.8265 141.518 79.726C141.819 79.3509 142.127 78.9756 142.434 78.6071C144.842 75.7542 147.554 73.173 150.521 70.9093C150.528 70.9026 150.541 70.8959 150.548 70.8893C150.809 70.6816 151.07 70.4806 151.337 70.2863C152.994 69.0645 154.718 67.9371 156.501 66.9097C157.41 66.3804 158.34 65.8779 159.29 65.4023C159.524 65.2817 159.765 65.1611 160.005 65.0472C160.246 64.9266 160.487 64.8128 160.728 64.6988C161.204 64.4553 161.726 64.3117 162.26 64.2768C164.119 64.25 165.075 66.1259 165.738 67.392C165.945 67.7874 166.159 68.1826 166.366 68.5779C167.169 70.0719 168.005 71.5593 168.875 73.0264C169.403 73.9376 169.951 74.8421 170.507 75.7398C171.303 77.0195 172.119 78.2856 172.968 79.5452C172.968 79.5461 172.968 79.547 172.969 79.5478C172.969 79.5486 172.969 79.5493 172.97 79.5499C172.97 79.5506 172.971 79.5511 172.972 79.5514C172.973 79.5518 172.974 79.5519 172.974 79.552H172.975C173.958 81.0392 174.981 82.4997 176.038 83.9536C177.851 86.4391 179.75 88.8688 181.737 91.2428C182.419 92.0601 183.113 92.8662 183.817 93.6613Z" fill="white"/>
<path d="M159.954 64.0725L159.769 64.1536C159.345 63.4367 158.751 62.8359 158.04 62.4045C157.328 61.973 156.521 61.7243 155.691 61.6805C152.952 61.4856 150.547 63.3135 150.328 65.7549C150.239 66.7602 150.53 67.7622 151.143 68.5635L150.971 68.6652C150.333 67.8308 150.03 66.7872 150.123 65.7403C150.35 63.1979 152.856 61.2943 155.707 61.4972C156.572 61.5429 157.412 61.8019 158.153 62.2511C158.894 62.7004 159.513 63.3261 159.954 64.0725V64.0725Z" fill="#FF6582"/>
<path d="M146.423 69.012C145.704 68.699 144.922 68.5617 144.14 68.6116C143.357 68.6614 142.598 68.897 141.925 69.2988C144.383 69.6766 146.819 70.1835 149.224 70.8176C148.228 70.2974 147.449 69.4824 146.423 69.012Z" fill="white"/>
<path d="M141.911 69.2965L141.641 69.4926C141.732 69.424 141.827 69.3596 141.925 69.2987L141.911 69.2965Z" fill="white"/>
<path d="M150.061 70.434C149.954 70.3268 149.846 70.2196 149.738 70.1124C148.905 69.2049 147.903 68.47 146.787 67.9497C146.219 67.7101 145.61 67.5842 144.994 67.579C144.357 67.5939 143.727 67.7163 143.131 67.9411C142.851 68.041 142.577 68.1543 142.307 68.275C141.998 68.4135 141.695 68.5611 141.393 68.71C140.827 68.9894 140.268 69.281 139.717 69.5849C138.619 70.1896 137.556 70.8405 136.528 71.5375C135.994 71.8989 135.472 72.2723 134.961 72.6574C134.485 73.0152 134.019 73.3826 133.563 73.7596C133.466 73.8399 133.32 73.71 133.417 73.6297C133.538 73.5299 133.659 73.4306 133.781 73.3326C134.125 73.0557 134.474 72.7841 134.828 72.5177C135.475 72.0313 136.138 71.5636 136.818 71.1147C137.876 70.4163 138.97 69.7652 140.1 69.1615C140.665 68.8601 141.238 68.5713 141.818 68.2952C141.993 68.2119 142.171 68.1304 142.35 68.0532C142.76 67.8693 143.182 67.7159 143.614 67.5943C144.234 67.4164 144.883 67.3596 145.524 67.4271C146.138 67.5056 146.734 67.6894 147.286 67.9705C148.38 68.5844 149.366 69.3724 150.207 70.3036C150.295 70.3918 150.15 70.5223 150.061 70.434Z" fill="white"/>
<path d="M50.1177 45.4037C65.1944 40.5856 82.0145 41.8611 96.2976 48.6489C100.373 50.5755 104.222 52.95 107.773 55.7285C108.778 56.5183 110.208 55.1056 109.192 54.3073C96.0734 44.1153 79.5899 39.2736 63.0536 40.7551C58.4787 41.1651 53.9622 42.074 49.5842 43.4656C48.3586 43.8572 48.8824 45.7984 50.1176 45.4037L50.1177 45.4037Z" fill="#3F3D56"/>
<path d="M50.1177 58.8028C65.1944 53.9847 82.0145 55.2603 96.2976 62.048C100.373 63.9747 104.222 66.3492 107.773 69.1277C108.778 69.9175 110.208 68.5048 109.192 67.7065C96.0734 57.5145 79.5899 52.6728 63.0536 54.1542C58.4787 54.5643 53.9622 55.4732 49.5842 56.8647C48.3586 57.2564 48.8824 59.1976 50.1176 58.8028L50.1177 58.8028Z" fill="#3F3D56"/>
<path d="M50.1177 72.2021C65.1944 67.384 82.0145 68.6596 96.2976 75.4473C100.373 77.374 104.222 79.7485 107.773 82.527C108.778 83.3168 110.208 81.9041 109.192 81.1058C96.0734 70.9138 79.5899 66.0721 63.0536 67.5535C58.4787 67.9636 53.9622 68.8725 49.5842 70.264C48.3586 70.6557 48.8824 72.5969 50.1176 72.2021L50.1177 72.2021Z" fill="#3F3D56"/>
<path d="M50.1177 85.6013C65.1944 80.7832 82.0145 82.0588 96.2976 88.8465C100.373 90.7731 104.222 93.1476 107.773 95.9262C108.778 96.716 110.208 95.3032 109.192 94.505C96.0734 84.3129 79.5899 79.4712 63.0536 80.9527C58.4787 81.3627 53.9622 82.2716 49.5842 83.6632C48.3586 84.0549 48.8824 85.996 50.1176 85.6013L50.1177 85.6013Z" fill="#3F3D56"/>
<path d="M50.1177 99.0006C65.1944 94.1825 82.0145 95.4581 96.2976 102.246C100.373 104.172 104.222 106.547 107.773 109.325C108.778 110.115 110.208 108.703 109.192 107.904C96.0734 97.7122 79.5899 92.8705 63.0536 94.352C58.4787 94.762 53.9622 95.6709 49.5842 97.0625C48.3586 97.4541 48.8824 99.3953 50.1176 99.0006H50.1177Z" fill="#3F3D56"/>
<path d="M104.437 15.8704V48.0013C104.437 48.6398 103.323 49.1743 101.821 49.3209C101.808 49.3202 101.796 49.3218 101.783 49.3257C101.533 49.3446 101.269 49.3588 100.999 49.3588C100.172 49.374 99.3477 49.2394 98.5675 48.9615C98.4967 48.9331 98.4259 48.9 98.355 48.8716C98.2889 48.8337 98.2181 48.8006 98.152 48.7628C97.7789 48.5405 97.5617 48.2803 97.5617 48.0013V13.0986C99.9253 13.8328 102.225 14.7598 104.437 15.8704V15.8704Z" fill="#FF3A3A"/>
<path d="M118.849 23.3228H117.866V137.9H118.849V23.3228Z" fill="#E6E6E6"/>
<path d="M225.676 101.759C226.372 101.695 227.046 101.479 227.651 101.126C228.255 100.773 228.775 100.291 229.173 99.7154C229.571 99.1394 229.839 98.483 229.956 97.7924C230.074 97.1017 230.039 96.3936 229.854 95.7179L250.244 86.1844L262.519 66.2952L252.87 62.3933L244.589 78.4206L223.63 92.4105C222.517 92.7972 221.585 93.5792 221.009 94.6084C220.434 95.6376 220.255 96.8425 220.508 97.9948C220.76 99.147 221.425 100.167 222.378 100.86C223.33 101.554 224.504 101.874 225.676 101.759V101.759Z" fill="#FFB6B6"/>
<path d="M270.091 47.2419C270.091 47.2419 272.494 48.0275 269.857 52.6961C267.745 56.4337 257.46 77.9627 253.262 82.1898C253.703 82.8988 253.897 83.7348 253.812 84.5661C253.727 85.3975 253.369 86.1769 252.793 86.7817L243.102 79.0785C242.916 76.2769 244.767 75.9989 245.864 76.0934L248.094 68.1785L255.87 48.6536L268.364 46.6431L270.091 47.2419Z" fill="#FF3A3A"/>
<path d="M270.3 10.6464C270.758 8.79068 274.083 7.4205 268.388 4.82974C267.006 4.20099 267.064 2.0357 265.895 1.066C264.726 0.0963037 263.014 -0.353259 261.655 0.32452C260.442 0.929775 259.758 2.29949 259.613 3.64929C259.543 5.00782 259.699 6.36852 260.076 7.6755L259.966 7.83705C262.221 9.5659 264.477 11.2947 266.732 13.0235C267.561 13.6588 268.645 14.3241 269.574 13.8474C270.625 13.3077 270.017 11.7953 270.3 10.6464Z" fill="#2F2E41"/>
</g>
<defs>
<clipPath id="clip0_304_190">
<rect width="316" height="242" fill="white"/>
</clipPath>
</defs>
</svg>
