<svg width="320" height="226" viewBox="0 0 320 226" fill="none" xmlns="http://www.w3.org/2000/svg">
<path d="M135.944 96.3699C135.442 96.0006 134.962 95.6014 134.508 95.1744L135.129 94.5143C135.557 94.9162 136.009 95.2921 136.482 95.6398L135.944 96.3699Z" fill="#E4E4E4"/>
<path d="M132.011 92.1291C131.316 91.0106 130.767 89.807 130.38 88.5481L131.248 88.2819C131.612 89.4661 132.127 90.5983 132.782 91.6505L132.011 92.1291ZM129.714 84.6715C129.705 84.4572 129.701 84.2427 129.701 84.028C129.701 82.9266 129.82 81.8283 130.056 80.7524L130.942 80.9465C130.72 81.9587 130.608 82.9919 130.608 84.028C130.608 84.23 130.612 84.4318 130.621 84.6334L129.714 84.6715ZM132.197 77.4657L131.39 77.0508C131.764 76.3242 132.196 75.6285 132.681 74.9702C132.978 74.5664 133.3 74.1808 133.644 73.8154L134.305 74.4363C133.986 74.7752 133.688 75.1329 133.412 75.5074C132.956 76.127 132.549 76.7819 132.197 77.4657H132.197ZM137.216 72.2068L136.788 71.4077C137.959 70.7809 139.224 70.3469 140.533 70.1227L140.687 71.0162C139.473 71.2239 138.301 71.626 137.216 72.2068H137.216ZM147.847 72.1078C146.752 71.545 145.574 71.164 144.357 70.9797L144.493 70.0834C145.807 70.2825 147.08 70.6939 148.262 71.3016L147.847 72.1078Z" fill="#E4E4E4"/>
<path d="M151.802 75.6954C151.504 75.2021 151.161 74.7383 150.775 74.3105L151.449 73.7035C151.874 74.1745 152.252 74.6851 152.579 75.2283L151.802 75.6954Z" fill="#E4E4E4"/>
<path d="M117.017 66.051L116.286 65.514C116.649 65.0209 117.031 64.5332 117.423 64.0646L118.119 64.6456C117.74 65.1001 117.369 65.573 117.017 66.051Z" fill="#E4E4E4"/>
<path d="M161.973 65.0028C161.276 64.0361 160.503 63.1257 159.663 62.2802L160.307 61.6413C161.181 62.5207 161.984 63.4676 162.709 64.4731L161.973 65.0028ZM120.589 62.0419L119.97 61.3783C120.875 60.5374 121.832 59.7544 122.835 59.0338L123.365 59.7701C122.392 60.4683 121.465 61.2271 120.589 62.0419ZM156.954 59.9516C155.989 59.2438 154.981 58.5964 153.935 58.0131L154.377 57.2213C155.456 57.823 156.496 58.4908 157.491 59.2209L156.954 59.9516ZM126.405 57.8668L125.973 57.0698C127.06 56.4822 128.182 55.9633 129.333 55.5161L129.662 56.3609C128.546 56.7944 127.458 57.2974 126.405 57.8668V57.8668ZM150.699 56.4675C149.588 56.0212 148.451 55.6453 147.293 55.3421L147.523 54.4651C148.718 54.7781 149.892 55.166 151.038 55.6265L150.699 56.4675ZM133.081 55.2742L132.861 54.3948C134.059 54.0954 135.275 53.8707 136.501 53.722L136.61 54.6221C135.421 54.7662 134.243 54.984 133.081 55.2742V55.2742ZM143.772 54.6545C142.585 54.4998 141.389 54.4195 140.192 54.4139L140.196 53.5073C141.431 53.5132 142.665 53.5961 143.89 53.7557L143.772 54.6545Z" fill="#E4E4E4"/>
<path d="M164.563 69.678C164.34 69.1312 164.092 68.587 163.828 68.0607L164.638 67.6534C164.914 68.201 165.171 68.7669 165.403 69.3354L164.563 69.678Z" fill="#E4E4E4"/>
<path d="M167.05 122.952L166.738 122.1C167.297 121.896 167.861 121.677 168.413 121.45L168.758 122.288C168.195 122.52 167.62 122.743 167.05 122.952Z" fill="#E4E4E4"/>
<path d="M152.903 125.721L152.87 124.815C154.047 124.772 155.237 124.682 156.407 124.547L156.511 125.448C155.318 125.585 154.104 125.677 152.903 125.721ZM149.285 125.71C148.083 125.659 146.869 125.56 145.679 125.415L145.789 124.515C146.956 124.657 148.145 124.755 149.323 124.805L149.285 125.71ZM160.086 124.892L159.912 124.003C161.067 123.777 162.228 123.502 163.363 123.186L163.607 124.059C162.449 124.381 161.265 124.662 160.086 124.892V124.892ZM142.107 124.836C140.93 124.597 139.747 124.307 138.593 123.976L138.844 123.104C139.975 123.429 141.134 123.713 142.288 123.948L142.107 124.836ZM135.158 122.839C134.033 122.417 132.912 121.944 131.824 121.433L132.21 120.613C133.276 121.113 134.375 121.577 135.477 121.991L135.158 122.839ZM128.613 119.768C127.573 119.175 126.54 118.532 125.544 117.856L126.053 117.106C127.03 117.769 128.043 118.4 129.063 118.981L128.613 119.768Z" fill="#E4E4E4"/>
<path d="M122.625 115.693C122.151 115.307 121.682 114.905 121.231 114.498L121.839 113.825C122.279 114.222 122.737 114.614 123.199 114.991L122.625 115.693Z" fill="#E4E4E4"/>
<path d="M97.5063 24.2871L97.0402 23.5093C97.5613 23.1976 98.0925 22.8891 98.619 22.5922L99.065 23.3816C98.5451 23.6748 98.0208 23.9793 97.5063 24.2871Z" fill="#E4E4E4"/>
<path d="M184.854 36.668C184.077 35.7632 183.259 34.8707 182.423 34.0156L183.072 33.382C183.921 34.2511 184.753 35.158 185.543 36.0775L184.854 36.668ZM179.825 31.5244C178.939 30.7269 178.013 29.9459 177.074 29.2034L177.637 28.4925C178.591 29.2469 179.532 30.0403 180.432 30.8507L179.825 31.5244ZM174.182 27.0551C173.201 26.3666 172.191 25.6954 171.181 25.0604L171.664 24.2931C172.687 24.9363 173.71 25.6159 174.703 26.3132L174.182 27.0551ZM168.082 23.2208C167.039 22.6368 165.967 22.0719 164.894 21.5416L165.297 20.7292C166.383 21.2661 167.469 21.8384 168.526 22.43L168.082 23.2208ZM102.251 21.6919L101.846 20.8807C102.931 20.3402 104.045 19.8208 105.156 19.3369L105.519 20.1679C104.422 20.6456 103.322 21.1584 102.251 21.6919L102.251 21.6919ZM161.624 20.0283C160.525 19.5538 159.4 19.1018 158.279 18.685L158.596 17.8354C159.731 18.2577 160.871 18.7155 161.984 19.1961L161.624 20.0283ZM108.861 18.8132L108.541 17.9648C109.675 17.5388 110.835 17.1359 111.992 16.7673L112.268 17.631C111.126 17.9949 109.98 18.3927 108.861 18.8132L108.861 18.8132ZM154.87 17.5155C153.729 17.157 152.563 16.8232 151.404 16.5235L151.632 15.6459C152.806 15.9494 153.987 16.2876 155.142 16.6509L154.87 17.5155ZM115.731 16.6241L115.499 15.7474C116.67 15.4392 117.866 15.1565 119.054 14.9074L119.24 15.7945C118.067 16.0406 116.887 16.3197 115.731 16.6241L115.731 16.6241ZM147.892 15.7109C146.721 15.4715 145.527 15.2591 144.343 15.0799L144.479 14.1837C145.678 14.3651 146.888 14.5803 148.074 14.8227L147.892 15.7109ZM122.788 15.1448L122.647 14.2492C123.843 14.0613 125.062 13.9015 126.269 13.7743L126.364 14.6759C125.172 14.8016 123.969 14.9593 122.788 15.1448V15.1448ZM140.765 14.6318C139.575 14.5134 138.365 14.4245 137.169 14.3671L137.212 13.4617C138.424 13.5197 139.65 13.6098 140.855 13.7296L140.765 14.6318ZM129.959 14.3895L129.91 13.4844C131.121 13.4188 132.35 13.3836 133.561 13.3799L133.564 14.2865C132.368 14.2902 131.155 14.3249 129.959 14.3895L129.959 14.3895Z" fill="#E4E4E4"/>
<path d="M188.182 40.9442C187.839 40.455 187.483 39.9658 187.125 39.4901L187.85 38.9453C188.214 39.4288 188.575 39.9261 188.925 40.4233L188.182 40.9442Z" fill="#E4E4E4"/>
<path d="M146.863 187.546C146.262 187.469 145.66 187.386 145.059 187.299L145.189 186.402C145.786 186.488 146.382 186.57 146.979 186.647L146.863 187.546Z" fill="#E4E4E4"/>
<path d="M141.387 186.704C140.173 186.486 138.945 186.244 137.738 185.986L137.928 185.099C139.125 185.356 140.343 185.595 141.547 185.811L141.387 186.704ZM134.114 185.145C132.915 184.846 131.706 184.522 130.522 184.184L130.771 183.312C131.946 183.648 133.145 183.969 134.335 184.266L134.114 185.145ZM126.964 183.102C125.787 182.722 124.603 182.318 123.444 181.901L123.752 181.048C124.901 181.462 126.076 181.863 127.243 182.239L126.964 183.102ZM119.967 180.582C118.822 180.125 117.668 179.642 116.537 179.147L116.901 178.317C118.023 178.808 119.168 179.287 120.304 179.74L119.967 180.582ZM113.157 177.597C112.043 177.064 110.924 176.505 109.831 175.935L110.25 175.131C111.335 175.696 112.445 176.251 113.549 176.78L113.157 177.597ZM106.562 174.163C105.491 173.559 104.412 172.926 103.355 172.282L103.827 171.508C104.876 172.147 105.946 172.774 107.008 173.373L106.562 174.163ZM100.212 170.296C99.181 169.621 98.1463 168.918 97.1369 168.208L97.6592 167.467C98.6605 168.171 99.6869 168.868 100.71 169.538L100.212 170.296ZM94.1305 166.016C93.1438 165.267 92.1618 164.49 91.2117 163.706L91.7896 163.007C92.7303 163.783 93.7024 164.553 94.6791 165.293L94.1305 166.016ZM88.3909 161.277C87.4714 160.452 86.5571 159.596 85.6737 158.734L86.3077 158.085C87.1822 158.939 88.0872 159.786 88.9974 160.603L88.3909 161.277ZM83.0652 156.078C82.2179 155.179 81.3786 154.25 80.5705 153.316L81.2568 152.723C82.0566 153.647 82.8874 154.567 83.7259 155.457L83.0652 156.078ZM78.1943 150.451C77.4255 149.484 76.6674 148.487 75.941 147.489L76.6748 146.956C77.3938 147.944 78.1441 148.93 78.905 149.888L78.1943 150.451Z" fill="#E4E4E4"/>
<path d="M73.8038 144.419C73.4671 143.912 73.136 143.403 72.8105 142.891L73.5764 142.405C73.8987 142.912 74.2264 143.416 74.5595 143.917L73.8038 144.419Z" fill="#E4E4E4"/>
<path d="M267.9 39.2215L256.591 49.6238L265.578 34.5565C258.497 21.7269 246.916 10.6391 246.916 10.6391C246.916 10.6391 222.889 33.6379 222.889 51.7165C222.889 69.795 233.646 76.1074 246.916 76.1074C260.186 76.1074 270.943 69.795 270.943 51.7165C270.943 47.6925 269.751 43.4251 267.9 39.2215Z" fill="#F2F2F2"/>
<path d="M253.682 50.1869V51.078C253.629 61.4362 251.881 69.5181 248.45 75.2089C248.401 75.2927 248.348 75.3721 248.3 75.4559L247.915 75.2221L247.549 74.9927C251.355 68.8475 252.702 60.1613 252.75 51.1266C252.755 50.8354 252.759 50.5399 252.755 50.2443C252.742 46.4195 252.508 42.5507 252.132 38.7921C252.106 38.5009 252.075 38.2053 252.044 37.9098C251.523 32.9513 250.772 28.2133 250.004 24.0974C249.951 23.8062 249.894 23.5151 249.836 23.2283C248.507 16.267 247.152 11.2247 246.842 10.1086C246.807 9.97182 246.785 9.89682 246.781 9.87919L247.2 9.76007L247.205 9.75565L247.628 9.63654C247.633 9.6542 247.708 9.90566 247.832 10.3733C248.304 12.1202 249.532 16.8626 250.737 23.118C250.79 23.4004 250.847 23.6915 250.9 23.9827C251.527 27.3222 252.141 31.0543 252.627 34.9717C252.75 35.9555 252.861 36.926 252.958 37.8833C252.993 38.1789 253.024 38.4744 253.051 38.7656C253.457 42.8286 253.667 46.6357 253.682 50.1869Z" fill="white"/>
<path d="M250.737 23.118C250.441 23.1578 250.141 23.1975 249.836 23.2283C249.009 23.3134 248.178 23.3561 247.346 23.3563C243.801 23.361 240.3 22.5711 237.102 21.0447C236.916 21.2785 236.731 21.5123 236.541 21.7505C239.906 23.3915 243.602 24.2425 247.346 24.2386C248.234 24.2383 249.121 24.1912 250.004 24.0974C250.304 24.0665 250.604 24.0268 250.9 23.9827C253.342 23.6328 255.717 22.9143 257.943 21.852C257.753 21.6093 257.568 21.3711 257.387 21.1373C255.28 22.1211 253.039 22.7885 250.737 23.118V23.118Z" fill="white"/>
<path d="M252.958 37.8833C252.653 37.901 252.349 37.9098 252.044 37.9098C251.951 37.9142 251.854 37.9142 251.761 37.9142C247.92 37.9143 244.136 36.9864 240.732 35.2097C237.328 33.433 234.404 30.8601 232.21 27.7104C232.033 27.9707 231.856 28.231 231.684 28.4957C233.971 31.6826 236.985 34.2793 240.477 36.0706C243.968 37.8619 247.836 38.7964 251.761 38.7965C251.885 38.7965 252.009 38.7965 252.132 38.7921C252.441 38.7877 252.746 38.7789 253.051 38.7656C257.765 38.5243 262.31 36.9315 266.143 34.1777C266.001 33.9174 265.86 33.6571 265.714 33.3969C261.99 36.1006 257.556 37.6598 252.958 37.8833V37.8833Z" fill="white"/>
<path d="M253.682 50.187C253.373 50.2134 253.064 50.2311 252.755 50.2443C252.424 50.2575 252.093 50.2664 251.761 50.2664C246.6 50.2604 241.58 48.5844 237.452 45.4893C233.324 42.3941 230.31 38.0463 228.863 33.0969C228.664 33.4542 228.465 33.8071 228.275 34.1645C229.907 39.1024 233.054 43.4012 237.27 46.4502C241.486 49.4991 246.557 51.1431 251.761 51.1487C252.093 51.1487 252.424 51.1443 252.75 51.1266C253.064 51.1178 253.373 51.1002 253.682 51.0781C259.925 50.5901 265.749 47.7501 269.975 43.133C269.882 42.8065 269.777 42.4845 269.671 42.1581C265.589 46.8097 259.854 49.6897 253.682 50.187V50.187Z" fill="white"/>
<path d="M36.4089 46.4245L43.7853 59.8992L31.3176 47.5503C17.1475 51.3216 3.58386 59.8761 3.58386 59.8761C3.58386 59.8761 20.1284 88.7199 37.6891 93.0806C55.2497 97.4413 63.9759 88.5338 67.1767 75.6675C70.3774 62.8014 66.8406 50.8488 49.2799 46.4881C45.3712 45.5175 40.9385 45.644 36.4089 46.4245Z" fill="#F2F2F2"/>
<path d="M43.6308 62.8552L44.4964 63.0701C54.5451 65.6199 61.9736 69.2647 66.6739 73.9639C66.7436 74.0312 66.8079 74.1017 66.8776 74.169L66.5579 74.4851L66.2466 74.7851C61.1955 69.6124 53.083 66.2115 44.3188 63.9851C44.037 63.9106 43.751 63.8351 43.4629 63.768C39.7444 62.8583 35.93 62.152 32.1885 61.6093C31.8993 61.5648 31.6048 61.5235 31.3102 61.4821C26.3681 60.7913 21.5848 60.3763 17.4015 60.1284C17.1058 60.1096 16.8092 60.095 16.5168 60.0815C9.43433 59.691 4.20948 59.7891 3.05079 59.8196C2.90944 59.8209 2.83127 59.8242 2.81306 59.8242L2.79854 59.3888L2.79532 59.3834L2.78186 58.9437C2.80008 58.9437 3.06244 58.9316 3.54647 58.9245C5.35732 58.8878 10.2599 58.8415 16.6269 59.1815C16.914 59.1983 17.2107 59.2129 17.5062 59.2317C20.9013 59.4293 24.6746 59.7344 28.5969 60.2084C29.5823 60.3258 30.5516 60.4529 31.5049 60.5896C31.8006 60.6266 32.0951 60.668 32.3843 60.7125C36.4289 61.2986 40.1777 62.0128 43.6308 62.8552Z" fill="white"/>
<path d="M16.6269 59.1815C16.5942 59.4779 16.5603 59.7786 16.5168 60.0815C16.3999 60.9042 16.2409 61.7205 16.0404 62.527C15.19 65.965 13.5783 69.1687 11.3241 71.9019C11.5065 72.1381 11.6889 72.3743 11.8744 72.6158C14.28 69.7491 15.9981 66.3711 16.8974 62.7398C17.1114 61.8788 17.2796 61.0071 17.4015 60.1284C17.4439 59.8299 17.4777 59.5292 17.5062 59.2317C17.7553 56.7795 17.6303 54.3038 17.1353 51.8892C16.8538 52.0147 16.5777 52.1371 16.3069 52.2562C16.7543 54.5363 16.8622 56.8699 16.6269 59.1815Z" fill="white"/>
<path d="M31.505 60.5896C31.4486 60.8892 31.3837 61.1868 31.3102 61.4822C31.2921 61.5731 31.2687 61.6673 31.2463 61.7572C30.3199 65.4814 28.5059 68.9265 25.9589 71.7988C23.4119 74.6712 20.2075 76.8856 16.6188 78.2533C16.829 78.4873 17.0393 78.7214 17.2548 78.9522C20.9021 77.5035 24.1514 75.2074 26.7335 72.2542C29.3157 69.301 31.1565 65.7756 32.1033 61.9701C32.1332 61.8502 32.163 61.7303 32.1885 61.6094C32.2588 61.3086 32.3237 61.0111 32.3843 60.7125C33.2871 56.0832 32.8363 51.2921 31.0857 46.912C30.7988 46.9862 30.5119 47.0604 30.2239 47.1389C31.9518 51.4024 32.397 56.077 31.505 60.5896V60.5896Z" fill="white"/>
<path d="M43.6308 62.8552C43.5819 63.1612 43.5245 63.4652 43.4628 63.7681C43.3958 64.0923 43.3245 64.4156 43.2446 64.7367C41.9939 69.7394 39.155 74.2029 35.1528 77.4588C31.1506 80.7147 26.2005 82.5878 21.0436 82.7977C21.3428 83.0766 21.6377 83.3544 21.939 83.6246C27.129 83.2341 32.0638 81.2194 36.0423 77.8669C40.0209 74.5144 42.8409 69.9945 44.1017 64.9495C44.1815 64.6284 44.2571 64.3062 44.3188 63.9852C44.3859 63.679 44.4433 63.3751 44.4964 63.0701C45.5283 56.8992 44.1744 50.567 40.7089 45.356C40.3694 45.3671 40.0311 45.3922 39.6884 45.4162C43.2223 50.4959 44.6364 56.7512 43.6308 62.8552V62.8552Z" fill="white"/>
<path d="M57.0673 132.038L54.3035 129.226L57.6923 124.05L63.4923 114.404C63.3028 113.988 63.244 113.525 63.3238 113.075C63.4035 112.626 63.618 112.211 63.9388 111.885C64.2597 111.56 64.6718 111.34 65.1207 111.254C65.5696 111.168 66.034 111.22 66.4526 111.403C66.8712 111.587 67.2242 111.893 67.465 112.281C67.7057 112.669 67.8228 113.121 67.8008 113.577C67.7789 114.033 67.6188 114.472 67.3418 114.835C67.0648 115.198 66.684 115.469 66.2497 115.611L61.4623 125.909L57.0673 132.038Z" fill="#A0616A"/>
<path d="M54.0057 138.457C53.6812 138.959 53.2188 139.357 52.6739 139.603C52.1289 139.85 51.5245 139.934 50.9327 139.847C50.3695 139.78 49.8379 139.551 49.4033 139.187C48.9686 138.823 48.6499 138.34 48.4861 137.798C48.3654 137.413 48.3303 137.006 48.3831 136.606C48.436 136.206 48.5755 135.822 48.792 135.482C50.6409 132.368 54.0508 128.255 54.085 128.214L54.1393 128.149L59.8906 129.394L54.0057 138.457Z" fill="#F68C8C"/>
<path d="M103.208 26.2198L102.532 26.4278L96.8271 7.91516C95.9514 5.07346 93.9817 2.69571 91.3513 1.30497C88.7209 -0.0857703 85.6453 -0.375571 82.801 0.499324H82.801L43.5438 12.5748C42.1355 13.008 40.8264 13.7141 39.6912 14.6528C38.5559 15.5915 37.6169 16.7444 36.9277 18.0456C36.2384 19.3469 35.8124 20.7711 35.6741 22.2368C35.5357 23.7025 35.6877 25.1812 36.1213 26.5882V26.5883L67.4183 128.15C68.294 130.992 70.2637 133.37 72.8941 134.76C75.5245 136.151 78.6002 136.441 81.4444 135.566H81.4445L120.702 123.491C123.546 122.616 125.926 120.648 127.318 118.02C128.71 115.392 129 112.319 128.124 109.477V109.477L106.593 39.6055L107.269 39.3974L103.208 26.2198Z" fill="#3F3D56"/>
<path d="M84.0927 3.1538L78.9683 4.73005C79.3819 5.23479 79.6648 5.83339 79.7922 6.47312C79.9197 7.11285 79.8877 7.77407 79.6991 8.39854C79.5105 9.023 79.1711 9.59155 78.7108 10.0541C78.2504 10.5166 77.6833 10.859 77.0594 11.0509L54.5694 17.9688C53.9455 18.1607 53.2838 18.1963 52.6428 18.0726C52.0018 17.9488 51.4011 17.6694 50.8936 17.2591C50.3861 16.8487 49.9875 16.32 49.7327 15.7194C49.4779 15.1189 49.3749 14.4649 49.4327 13.8152L44.6465 15.2874C42.5224 15.9408 40.7451 17.4104 39.7056 19.373C38.6661 21.3356 38.4495 23.6303 39.1034 25.7525L70.3545 127.165C71.0085 129.288 72.4794 131.063 74.4438 132.102C76.4082 133.14 78.705 133.357 80.8291 132.703H80.8291L120.275 120.57C122.399 119.916 124.177 118.447 125.216 116.484C126.256 114.522 126.472 112.227 125.818 110.105V110.105L94.5672 8.69184C93.9133 6.5697 92.4423 4.79402 90.478 3.75544C88.5136 2.71685 86.2168 2.50044 84.0927 3.1538Z" fill="white"/>
<path d="M242.916 224.566L150.825 191.493C148.644 190.707 146.863 189.088 145.874 186.992C144.886 184.895 144.77 182.493 145.552 180.311L193.559 46.8799C194.346 44.7001 195.966 42.9211 198.065 41.9334C200.163 40.9457 202.568 40.8298 204.751 41.6113L296.842 74.6844C299.024 75.4708 300.804 77.0897 301.793 79.186C302.781 81.2824 302.897 83.6849 302.115 85.8665L254.108 219.298C253.321 221.477 251.701 223.256 249.603 224.244C247.504 225.232 245.1 225.348 242.916 224.566V224.566Z" fill="#3F3D56"/>
<path d="M244.966 219.376L152.552 186.187C151.879 185.944 151.33 185.445 151.025 184.799C150.721 184.153 150.685 183.412 150.926 182.74L199.251 48.4251C199.493 47.7531 199.993 47.2048 200.64 46.9003C201.287 46.5958 202.028 46.5601 202.701 46.801L295.116 79.9906C295.788 80.233 296.337 80.732 296.642 81.3782C296.947 82.0245 296.982 82.7651 296.741 83.4376L248.416 217.752C248.174 218.424 247.674 218.973 247.028 219.277C246.381 219.582 245.639 219.617 244.966 219.376V219.376Z" fill="white"/>
<path d="M249.54 61.2847C249.951 61.2847 250.284 60.9518 250.284 60.5411C250.284 60.1304 249.951 59.7975 249.54 59.7975C249.129 59.7975 248.796 60.1304 248.796 60.5411C248.796 60.9518 249.129 61.2847 249.54 61.2847Z" fill="white"/>
<path d="M96.5667 80.8668C104.415 73.0252 104.415 60.3114 96.5667 52.4698C88.718 44.6282 75.9927 44.6282 68.1439 52.4698C60.2952 60.3114 60.2952 73.0252 68.1439 80.8669C75.9927 88.7085 88.718 88.7085 96.5667 80.8668Z" fill="#F68C8C"/>
<path d="M84.4597 76.2509L74.5119 69.5085L75.3806 68.23L83.6162 73.8122L89.5685 55.2086L91.0409 55.6788L84.4597 76.2509Z" fill="white"/>
<path d="M241.905 149.319C251.846 139.387 251.846 123.284 241.905 113.352C231.964 103.42 215.847 103.42 205.906 113.352C195.965 123.284 195.965 139.387 205.906 149.319C215.847 159.251 231.964 159.251 241.905 149.319Z" fill="#F68C8C"/>
<path d="M217.766 142.141L214.111 127.375L216.012 126.906L219.039 139.131L240.412 126.644L241.4 128.333L217.766 142.141Z" fill="white"/>
<path d="M58.6695 207.37H62.106L63.7408 194.127L58.6689 194.128L58.6695 207.37Z" fill="#A0616A"/>
<path d="M57.793 206.249L64.5605 206.249H64.5608C65.7046 206.249 66.8015 206.703 67.6103 207.511C68.4191 208.319 68.8735 209.415 68.8736 210.558V210.698L57.7932 210.698L57.793 206.249Z" fill="#2F2E41"/>
<path d="M31.9123 205.884L35.3101 206.397L38.9081 193.547L34.4538 192.79L31.9123 205.884Z" fill="#A0616A"/>
<path d="M31.2134 204.645L37.9049 205.655L37.9052 205.655C39.0361 205.826 40.0528 206.439 40.7316 207.359C41.4104 208.278 41.6958 209.43 41.5248 210.56L41.5039 210.698L30.5479 209.044L31.2134 204.645Z" fill="#2F2E41"/>
<path d="M51.8156 144.941L59.8068 143.202L64.2889 156.002L64.4291 205.43L57.906 205.39L55.1792 165.384L37.8007 202.35L30.7932 201.51L46.0695 161.883C46.0695 161.883 45.2286 154.882 47.8914 151.382L47.3309 147.741L51.8156 144.941Z" fill="#2F2E41"/>
<path d="M44.3137 135.529C44.1321 134.984 44.1128 134.398 44.2582 133.842C44.4036 133.286 44.7074 132.784 45.1328 132.397L46.8219 130.863L51.5838 130.062L54.5613 129.521L61.6215 147.13L47.7238 148.711C46.7038 148.491 46.2963 147.934 46.8899 146.825L44.3137 135.529Z" fill="#F68C8C"/>
<path d="M61.1409 132.613L60.7433 128.692L66.6275 126.769L77.1903 122.863C77.3025 122.42 77.5465 122.022 77.8901 121.721C78.2337 121.42 78.6607 121.23 79.1146 121.177C79.5685 121.123 80.028 121.209 80.4322 121.422C80.8364 121.635 81.1663 121.966 81.3782 122.37C81.5902 122.775 81.6742 123.234 81.6192 123.688C81.5642 124.141 81.3728 124.567 81.0702 124.909C80.7676 125.251 80.3682 125.494 79.9247 125.604C79.4812 125.715 79.0146 125.688 78.5866 125.528L68.4062 130.575L61.1409 132.613Z" fill="#A0616A"/>
<path d="M54.7348 135.71C54.1674 135.899 53.5574 135.921 52.9779 135.773C52.3984 135.625 51.8737 135.313 51.4668 134.875C51.0689 134.472 50.7976 133.961 50.6862 133.405C50.5748 132.85 50.628 132.274 50.8395 131.748C50.9862 131.372 51.2133 131.033 51.5048 130.754C51.7963 130.474 52.1453 130.262 52.5274 130.132C55.9189 128.856 61.1538 127.776 61.2061 127.766L61.2894 127.749L64.9991 132.313L54.7348 135.71Z" fill="#F68C8C"/>
<path d="M49.494 128.376C52.381 128.376 54.7213 126.038 54.7213 123.154C54.7213 120.269 52.381 117.931 49.494 117.931C46.6071 117.931 44.2668 120.269 44.2668 123.154C44.2668 126.038 46.6071 128.376 49.494 128.376Z" fill="#A0616A"/>
<path d="M45.262 130.594C44.4514 130.594 43.6415 130.544 42.8369 130.446L42.7266 130.433L41.8846 125.866C41.5275 123.93 41.9256 121.93 42.9973 120.278C44.069 118.626 45.7329 117.447 47.6476 116.982C47.7753 116.95 47.9096 116.953 48.0355 116.992C48.1614 117.031 48.2741 117.104 48.3612 117.203L48.562 117.133C49.3308 116.865 50.1449 116.751 50.9579 116.798C51.7708 116.844 52.5665 117.05 53.2998 117.404C54.033 117.758 54.6893 118.252 55.2312 118.859C55.7731 119.467 56.19 120.174 56.4581 120.943L56.5078 121.085L55.1677 121.552C54.7502 121.698 54.3704 121.934 54.0559 122.245C53.7413 122.555 53.5001 122.932 53.3496 123.348C53.1992 123.763 53.1433 124.207 53.1861 124.646C53.2288 125.086 53.3692 125.511 53.5969 125.89L54.967 128.169L54.8211 128.242C51.8639 129.765 48.589 130.571 45.262 130.594V130.594Z" fill="#2F2E41"/>
<path d="M115.539 211.193H0.302457C0.222241 211.193 0.145309 211.161 0.0885875 211.104C0.0318657 211.048 0 210.971 0 210.891C0 210.811 0.0318657 210.734 0.0885875 210.677C0.145309 210.62 0.222241 210.589 0.302457 210.589H115.539C115.619 210.589 115.696 210.62 115.753 210.677C115.809 210.734 115.841 210.811 115.841 210.891C115.841 210.971 115.809 211.048 115.753 211.104C115.696 211.161 115.619 211.193 115.539 211.193Z" fill="#CACACA"/>
<path d="M319.698 226H204.461C204.381 226 204.304 225.968 204.247 225.911C204.191 225.855 204.159 225.778 204.159 225.698C204.159 225.618 204.191 225.541 204.247 225.484C204.304 225.427 204.381 225.396 204.461 225.396H319.698C319.778 225.396 319.855 225.427 319.911 225.484C319.968 225.541 320 225.618 320 225.698C320 225.778 319.968 225.855 319.911 225.911C319.855 225.968 319.778 226 319.698 226Z" fill="#CACACA"/>
<path d="M257.11 173.26C257.366 173.046 257.571 172.779 257.712 172.477C257.853 172.175 257.926 171.846 257.926 171.513C257.926 171.18 257.853 170.851 257.712 170.55C257.571 170.248 257.365 169.981 257.11 169.767L255.415 139.965L250.579 141.057L253.776 170.163C253.445 170.616 253.292 171.174 253.345 171.732C253.399 172.29 253.655 172.809 254.066 173.191C254.477 173.573 255.014 173.791 255.575 173.803C256.136 173.816 256.682 173.623 257.11 173.26H257.11Z" fill="#9F616A"/>
<path d="M276.746 177.14C276.483 176.936 276.268 176.676 276.117 176.38C275.965 176.084 275.88 175.757 275.868 175.425C275.856 175.092 275.917 174.761 276.047 174.454C276.177 174.147 276.373 173.873 276.62 173.65L277.234 143.806L282.107 144.723L279.966 173.925C280.313 174.366 280.487 174.918 280.454 175.478C280.42 176.037 280.183 176.565 279.786 176.962C279.389 177.358 278.86 177.595 278.3 177.628C277.74 177.661 277.187 177.488 276.746 177.14V177.14Z" fill="#9F616A"/>
<path d="M279.325 221.494L283.119 221.494L284.201 212.651L279.324 212.651L279.325 221.494Z" fill="#9F616A"/>
<path d="M278.357 220.256L285.829 220.256H285.829C287.092 220.256 288.303 220.757 289.196 221.65C290.089 222.542 290.591 223.752 290.591 225.014V225.168L278.357 225.169L278.357 220.256Z" fill="#2F2E41"/>
<path d="M255.649 221.494L259.443 221.494L260.525 206.873H255.649L255.649 221.494Z" fill="#9F616A"/>
<path d="M254.681 220.256L262.153 220.256H262.154C263.417 220.256 264.628 220.757 265.521 221.65C266.414 222.542 266.915 223.752 266.915 225.014V225.168L254.682 225.169L254.681 220.256Z" fill="#2F2E41"/>
<path d="M270.933 127.108C274.361 127.108 277.14 124.332 277.14 120.906C277.14 117.481 274.361 114.705 270.933 114.705C267.505 114.705 264.726 117.481 264.726 120.906C264.726 124.332 267.505 127.108 270.933 127.108Z" fill="#9F616A"/>
<path d="M278.822 135.217C278.822 135.217 281.581 135.447 281.811 136.825C282.041 138.203 281.811 142.337 281.811 142.337C281.811 142.337 283.65 147.85 281.811 149.228C279.972 150.606 275.144 150.836 275.144 150.836L278.822 135.217Z" fill="#E4E4E4"/>
<path d="M255.372 166.455L252.844 170.589C252.844 170.589 253.763 188.735 253.993 189.194C254.176 189.464 254.257 189.789 254.223 190.113V192.64L254.913 214.69C254.913 214.69 253.073 215.609 255.372 216.298C257.671 216.987 260.66 217.216 261.12 214.92C261.58 212.623 261.601 193.487 261.58 192.869L261.81 191.951L265.488 178.399L273.994 197.233L279.052 218.365C279.052 218.365 286.707 219.248 285.327 216.262C283.948 213.276 280.661 191.032 280.661 191.032C280.661 191.032 279.972 188.735 279.972 188.275C279.972 187.816 279.742 187.586 279.742 187.127C279.742 186.668 279.512 185.289 279.512 185.289L277.902 170.819L255.372 166.455Z" fill="#2F2E41"/>
<path d="M257.671 131.312C257.671 131.312 254.913 131.083 254.223 133.379C253.533 135.676 247.786 144.405 248.935 145.323C250.085 146.242 258.821 149.458 259.051 149.228C259.281 148.998 257.671 131.312 257.671 131.312Z" fill="#E4E4E4"/>
<path d="M278.161 116.952C277.901 115.983 277.534 115.014 276.786 114.345C276.028 113.672 275.055 113.289 274.042 113.265C272.885 112.596 271.586 112.207 270.251 112.131C268.917 112.056 267.583 112.295 266.357 112.83C266.225 112.563 266.01 112.344 265.745 112.207C265.672 112.844 265.598 113.482 265.524 114.12C265.239 113.906 264.954 113.691 264.668 113.477C264.654 113.854 264.64 114.232 264.626 114.609C264.365 114.385 264.104 114.16 263.842 113.936C263.787 115.273 264.9 116.43 266.159 116.886C267.418 117.341 268.799 117.257 270.136 117.194C270.797 117.163 271.549 117.174 271.995 117.662C272.462 118.173 272.374 118.957 272.386 119.649C272.402 120.623 273.402 120.146 273.903 120.98C274.119 121.257 274.254 121.588 274.293 121.936C274.245 122.253 274.13 122.555 273.956 122.823C273.587 123.585 272.852 125.956 273.203 126.726C273.852 126.364 274.5 126.001 275.149 125.638C275.149 125.638 279.422 121.641 278.161 116.952Z" fill="#2F2E41"/>
<path d="M276.983 148.539C276.983 148.539 281.581 136.825 281.351 135.906C281.121 134.987 275.385 131.217 275.385 131.217C275.166 131.19 274.959 131.164 274.75 131.138C274.781 131.057 274.802 130.972 274.813 130.886L274.912 129.987C274.942 129.708 274.86 129.428 274.685 129.209C274.509 128.99 274.253 128.85 273.974 128.819L266.684 128.021C266.405 127.99 266.125 128.072 265.906 128.247C265.687 128.423 265.546 128.679 265.516 128.958L265.43 129.736C265.046 129.64 265.028 129.603 265.028 129.603C265.028 129.603 258.591 130.623 256.982 131.083C255.372 131.542 256.752 148.998 256.752 148.998C256.752 148.998 255.602 165.077 254.913 165.536C254.223 165.995 254.913 165.766 254.223 167.603C254.132 167.846 255.402 166.492 255.947 166.799C259.534 168.82 274.08 173.545 277.673 173.346C278.821 161.37 276.523 157.497 276.523 157.497L276.983 148.539Z" fill="#E4E4E4"/>
</svg>
