<svg width="325" height="187" viewBox="0 0 325 187" fill="none" xmlns="http://www.w3.org/2000/svg">
<path d="M150.079 177.383C149.599 177.383 149.127 177.259 148.709 177.022L69.531 132.437C68.8874 132.074 68.4148 131.471 68.2169 130.761C68.019 130.051 68.1119 129.292 68.4752 128.65L130.838 18.7854C131.019 18.4676 131.26 18.1883 131.549 17.9635C131.837 17.7386 132.168 17.5727 132.521 17.475C132.874 17.3774 133.243 17.35 133.607 17.3944C133.97 17.4388 134.322 17.5542 134.641 17.7339L213.819 62.3191C214.462 62.6825 214.935 63.2852 215.133 63.9952C215.331 64.7052 215.238 65.4644 214.875 66.1063L152.512 175.97C152.332 176.289 152.091 176.569 151.802 176.794C151.513 177.019 151.183 177.184 150.829 177.281C150.585 177.349 150.332 177.383 150.079 177.383Z" fill="#E6E6E6"/>
<path d="M128.63 23.0897L128.312 23.6502L211.992 70.7706L212.31 70.2101L128.63 23.0897Z" fill="white"/>
<path d="M122.903 33.1792L122.585 33.7398L206.265 80.8602L206.583 80.2996L122.903 33.1792Z" fill="white"/>
<path d="M117.175 43.2688L116.857 43.8293L200.538 90.9497L200.856 90.3892L117.175 43.2688Z" fill="white"/>
<path d="M111.448 53.3583L111.13 53.9189L194.811 101.039L195.129 100.479L111.448 53.3583Z" fill="white"/>
<path d="M105.721 63.4479L105.403 64.0084L189.083 111.129L189.402 110.568L105.721 63.4479Z" fill="white"/>
<path d="M99.9939 73.5375L99.6757 74.098L183.356 121.218L183.674 120.658L99.9939 73.5375Z" fill="white"/>
<path d="M94.2667 83.627L93.9485 84.1875L177.629 131.308L177.947 130.747L94.2667 83.627Z" fill="white"/>
<path d="M88.5395 93.7166L88.2213 94.2771L171.902 141.398L172.22 140.837L88.5395 93.7166Z" fill="white"/>
<path d="M82.8122 103.806L82.4941 104.367L166.175 151.487L166.493 150.927L82.8122 103.806Z" fill="white"/>
<path d="M77.085 113.896L76.7669 114.456L160.447 161.577L160.766 161.016L77.085 113.896Z" fill="white"/>
<path d="M71.3578 123.985L71.0397 124.546L154.72 171.666L155.038 171.106L71.3578 123.985Z" fill="white"/>
<path d="M142.713 160.673C142.233 160.673 141.761 160.549 141.344 160.312L62.1654 115.727C61.5218 115.364 61.0493 114.761 60.8513 114.051C60.6534 113.341 60.7463 112.582 61.1097 111.94L123.473 2.07548C123.653 1.7577 123.894 1.4784 124.183 1.25355C124.472 1.0287 124.802 0.862709 125.155 0.765058C125.508 0.667406 125.877 0.640009 126.241 0.68443C126.605 0.728851 126.956 0.844223 127.275 1.02395L206.453 45.6091C207.097 45.9725 207.57 46.5753 207.768 47.2853C207.965 47.9953 207.873 48.7545 207.509 49.3964L145.146 159.26C144.967 159.579 144.726 159.859 144.437 160.084C144.148 160.309 143.817 160.474 143.464 160.571C143.219 160.639 142.967 160.673 142.713 160.673Z" fill="#F2F2F2"/>
<path d="M121.264 6.37973L120.946 6.94025L204.627 54.0606L204.945 53.5001L121.264 6.37973Z" fill="white"/>
<path d="M115.537 16.4693L115.219 17.0298L198.899 64.1502L199.218 63.5897L115.537 16.4693Z" fill="white"/>
<path d="M109.81 26.5588L109.492 27.1194L193.172 74.2398L193.49 73.6792L109.81 26.5588Z" fill="white"/>
<path d="M104.083 36.6484L103.765 37.2089L187.445 84.3293L187.763 83.7688L104.083 36.6484Z" fill="white"/>
<path d="M98.3555 46.738L98.0373 47.2985L181.718 94.4189L182.036 93.8584L98.3555 46.738Z" fill="white"/>
<path d="M92.6283 56.8275L92.3101 57.388L175.991 104.508L176.309 103.948L92.6283 56.8275Z" fill="white"/>
<path d="M86.9011 66.9171L86.5829 67.4776L170.263 114.598L170.582 114.037L86.9011 66.9171Z" fill="white"/>
<path d="M81.1739 77.0066L80.8557 77.5672L164.536 124.688L164.854 124.127L81.1739 77.0066Z" fill="white"/>
<path d="M75.4467 87.0962L75.1285 87.6567L158.809 134.777L159.127 134.217L75.4467 87.0962Z" fill="white"/>
<path d="M69.7195 97.1857L69.4013 97.7463L153.082 144.867L153.4 144.306L69.7195 97.1857Z" fill="white"/>
<path d="M63.9923 107.275L63.6741 107.836L147.355 154.956L147.673 154.396L63.9923 107.275Z" fill="white"/>
<path d="M134.823 0H8.28362V175.251H134.823C135.278 175.251 135.713 175.071 136.035 174.751C136.356 174.431 136.537 173.996 136.537 173.544V1.70699C136.537 1.25427 136.356 0.820098 136.035 0.499978C135.713 0.179858 135.278 9.72782e-06 134.823 0ZM15.4247 170.414C14.8032 170.414 14.1957 170.231 13.679 169.887C13.1623 169.543 12.7596 169.054 12.5218 168.482C12.284 167.91 12.2217 167.281 12.343 166.674C12.4642 166.067 12.7635 165.51 13.2029 165.072C13.6423 164.634 14.2022 164.336 14.8117 164.215C15.4212 164.095 16.0529 164.157 16.6271 164.393C17.2012 164.63 17.6919 165.031 18.0372 165.546C18.3824 166.061 18.5667 166.666 18.5667 167.285C18.5667 167.696 18.4855 168.103 18.3275 168.482C18.1696 168.862 17.9382 169.207 17.6464 169.498C17.3547 169.788 17.0083 170.019 16.6271 170.176C16.2459 170.333 15.8373 170.414 15.4247 170.414ZM15.4247 154.482C14.8032 154.482 14.1957 154.299 13.679 153.955C13.1623 153.611 12.7596 153.122 12.5218 152.55C12.284 151.979 12.2217 151.349 12.343 150.742C12.4642 150.135 12.7635 149.578 13.2029 149.14C13.6423 148.702 14.2022 148.404 14.8117 148.284C15.4212 148.163 16.0529 148.225 16.6271 148.462C17.2012 148.698 17.6919 149.1 18.0372 149.614C18.3824 150.129 18.5667 150.734 18.5667 151.353C18.5667 151.764 18.4855 152.171 18.3276 152.55C18.1697 152.93 17.9382 153.275 17.6464 153.566C17.3547 153.856 17.0083 154.087 16.6271 154.244C16.2459 154.401 15.8373 154.482 15.4247 154.482ZM15.4247 138.55C14.8032 138.55 14.1957 138.367 13.679 138.023C13.1623 137.679 12.7596 137.19 12.5218 136.619C12.284 136.047 12.2217 135.417 12.343 134.81C12.4642 134.203 12.7635 133.646 13.2029 133.208C13.6423 132.77 14.2022 132.472 14.8117 132.352C15.4212 132.231 16.0529 132.293 16.6271 132.53C17.2012 132.767 17.6919 133.168 18.0372 133.682C18.3824 134.197 18.5667 134.802 18.5667 135.421C18.5667 135.832 18.4855 136.239 18.3275 136.619C18.1696 136.998 17.9382 137.343 17.6464 137.634C17.3547 137.924 17.0083 138.155 16.6271 138.312C16.2459 138.469 15.8373 138.55 15.4247 138.55ZM15.4247 122.619C14.8032 122.619 14.1957 122.435 13.679 122.091C13.1623 121.747 12.7596 121.259 12.5218 120.687C12.284 120.115 12.2217 119.486 12.343 118.879C12.4642 118.272 12.7635 117.714 13.2029 117.276C13.6423 116.839 14.2022 116.54 14.8117 116.42C15.4212 116.299 16.0529 116.361 16.6271 116.598C17.2012 116.835 17.6919 117.236 18.0372 117.75C18.3824 118.265 18.5667 118.87 18.5667 119.489C18.5667 119.9 18.4855 120.307 18.3275 120.687C18.1696 121.066 17.9382 121.411 17.6464 121.702C17.3547 121.993 17.0083 122.223 16.6271 122.38C16.2459 122.538 15.8373 122.619 15.4247 122.619ZM15.4247 106.687C14.8032 106.687 14.1957 106.503 13.679 106.159C13.1623 105.815 12.7596 105.327 12.5218 104.755C12.284 104.183 12.2217 103.554 12.343 102.947C12.4642 102.34 12.7635 101.782 13.2029 101.344C13.6423 100.907 14.2022 100.609 14.8117 100.488C15.4212 100.367 16.0529 100.429 16.6271 100.666C17.2012 100.903 17.6919 101.304 18.0372 101.819C18.3824 102.333 18.5667 102.938 18.5667 103.557C18.5667 103.968 18.4855 104.375 18.3275 104.755C18.1696 105.134 17.9382 105.479 17.6464 105.77C17.3547 106.061 17.0083 106.291 16.6271 106.448C16.2459 106.606 15.8373 106.687 15.4247 106.687ZM15.4247 90.7548C14.8032 90.7548 14.1957 90.5713 13.679 90.2274C13.1623 89.8835 12.7596 89.3948 12.5218 88.8229C12.284 88.2511 12.2217 87.6219 12.343 87.0148C12.4642 86.4077 12.7635 85.8501 13.2029 85.4125C13.6423 84.9748 14.2022 84.6767 14.8117 84.556C15.4212 84.4352 16.0529 84.4972 16.6271 84.7341C17.2012 84.9709 17.6919 85.372 18.0372 85.8867C18.3824 86.4013 18.5667 87.0064 18.5667 87.6253C18.5667 88.0363 18.4855 88.4432 18.3275 88.8229C18.1696 89.2026 17.9382 89.5476 17.6464 89.8382C17.3547 90.1288 17.0083 90.3593 16.6271 90.5166C16.2459 90.6739 15.8373 90.7548 15.4247 90.7548ZM15.4247 74.8229C14.8032 74.8229 14.1957 74.6394 13.679 74.2955C13.1623 73.9516 12.7596 73.4629 12.5218 72.8911C12.284 72.3192 12.2217 71.69 12.343 71.0829C12.4642 70.4759 12.7635 69.9182 13.2029 69.4806C13.6423 69.0429 14.2022 68.7449 14.8117 68.6241C15.4212 68.5034 16.0529 68.5653 16.6271 68.8022C17.2012 69.0391 17.6919 69.4402 18.0372 69.9548C18.3824 70.4694 18.5667 71.0745 18.5667 71.6935C18.5667 72.1044 18.4855 72.5114 18.3275 72.8911C18.1696 73.2707 17.9382 73.6157 17.6464 73.9063C17.3547 74.1969 17.0083 74.4274 16.6271 74.5847C16.2459 74.742 15.8373 74.8229 15.4247 74.8229ZM15.4247 58.8911C14.8032 58.8911 14.1957 58.7075 13.679 58.3636C13.1623 58.0198 12.7596 57.531 12.5218 56.9592C12.284 56.3873 12.2217 55.7581 12.343 55.151C12.4642 54.544 12.7635 53.9864 13.2029 53.5487C13.6423 53.111 14.2022 52.813 14.8117 52.6922C15.4212 52.5715 16.0529 52.6335 16.6271 52.8703C17.2012 53.1072 17.6919 53.5083 18.0372 54.0229C18.3824 54.5376 18.5667 55.1426 18.5667 55.7616C18.5667 56.1725 18.4855 56.5795 18.3275 56.9592C18.1696 57.3389 17.9382 57.6839 17.6464 57.9745C17.3547 58.2651 17.0083 58.4956 16.6271 58.6528C16.2459 58.8101 15.8373 58.8911 15.4247 58.8911ZM15.4247 42.9592C14.8032 42.9592 14.1957 42.7756 13.679 42.4318C13.1623 42.0879 12.7596 41.5991 12.5218 41.0273C12.284 40.4555 12.2217 39.8262 12.343 39.2192C12.4642 38.6121 12.7635 38.0545 13.2029 37.6168C13.6423 37.1792 14.2022 36.8811 14.8117 36.7604C15.4212 36.6396 16.0529 36.7016 16.6271 36.9384C17.2012 37.1753 17.6919 37.5764 18.0372 38.0911C18.3824 38.6057 18.5667 39.2107 18.5667 39.8297C18.5667 40.2407 18.4855 40.6476 18.3275 41.0273C18.1696 41.407 17.9382 41.752 17.6464 42.0426C17.3547 42.3332 17.0083 42.5637 16.6271 42.721C16.2459 42.8782 15.8373 42.9592 15.4247 42.9592ZM15.4247 27.0273C14.8032 27.0273 14.1957 26.8438 13.679 26.4999C13.1623 26.156 12.7596 25.6673 12.5218 25.0954C12.284 24.5236 12.2217 23.8944 12.343 23.2873C12.4642 22.6802 12.7635 22.1226 13.2029 21.6849C13.6423 21.2473 14.2022 20.9492 14.8117 20.8285C15.4212 20.7077 16.0529 20.7697 16.6271 21.0065C17.2012 21.2434 17.6919 21.6445 18.0372 22.1592C18.3824 22.6738 18.5667 23.2789 18.5667 23.8978C18.5667 24.3088 18.4855 24.7157 18.3275 25.0954C18.1696 25.4751 17.9382 25.8201 17.6464 26.1107C17.3547 26.4013 17.0083 26.6318 16.6271 26.7891C16.2459 26.9464 15.8373 27.0273 15.4247 27.0273ZM15.4247 11.0954C14.8032 11.0954 14.1957 10.9119 13.679 10.568C13.1623 10.2241 12.7596 9.73538 12.5218 9.16354C12.284 8.59171 12.2217 7.96247 12.343 7.35541C12.4642 6.74835 12.7635 6.19073 13.2029 5.75307C13.6423 5.3154 14.2022 5.01734 14.8117 4.89659C15.4212 4.77584 16.0529 4.83781 16.6271 5.07468C17.2012 5.31154 17.6919 5.71265 18.0372 6.22729C18.3824 6.74193 18.5667 7.34699 18.5667 7.96594C18.5667 8.37691 18.4855 8.78385 18.3275 9.16354C18.1696 9.54322 17.9382 9.88822 17.6464 10.1788C17.3547 10.4694 17.0083 10.6999 16.6271 10.8572C16.2459 11.0145 15.8373 11.0954 15.4247 11.0954Z" fill="#F68C8C"/>
<path d="M8.28361 9.67293C7.43575 9.67293 0 9.63306 0 8.25044C0 6.86782 7.43575 6.82795 8.28361 6.82795V7.39694C3.90404 7.39694 1.06425 7.88523 0.606917 8.25044C1.06425 8.61565 3.90404 9.10393 8.28361 9.10393C12.6534 9.10393 15.4903 8.61771 15.9572 8.25295C15.735 8.09667 14.8273 7.76911 12.3928 7.55949L12.442 6.99271C16.5672 7.34778 16.5672 8.00359 16.5672 8.25044C16.5672 9.63306 9.13147 9.67293 8.28361 9.67293Z" fill="#2F2E41"/>
<path d="M8.28361 25.3203C7.43575 25.3203 0 25.2804 0 23.8978C0 22.5152 7.43575 22.4753 8.28361 22.4753V23.0443C3.90404 23.0443 1.06425 23.5326 0.606917 23.8978C1.06425 24.263 3.90404 24.7513 8.28361 24.7513C12.6534 24.7513 15.4903 24.2651 15.9572 23.9003C15.735 23.7441 14.8273 23.4165 12.3928 23.2069L12.442 22.6401C16.5672 22.9952 16.5672 23.651 16.5672 23.8978C16.5672 25.2804 9.13147 25.3203 8.28361 25.3203Z" fill="#2F2E41"/>
<path d="M8.28361 41.2522C7.43575 41.2522 0 41.2123 0 39.8297C0 38.4471 7.43575 38.4072 8.28361 38.4072V38.9762C3.90404 38.9762 1.06425 39.4645 0.606917 39.8297C1.06425 40.1949 3.90404 40.6832 8.28361 40.6832C12.6534 40.6832 15.4903 40.197 15.9572 39.8322C15.735 39.6759 14.8273 39.3484 12.3928 39.1387L12.442 38.572C16.5672 38.927 16.5672 39.5829 16.5672 39.8297C16.5672 41.2123 9.13147 41.2522 8.28361 41.2522Z" fill="#2F2E41"/>
<path d="M8.28361 57.1841C7.43575 57.1841 0 57.1442 0 55.7616C0 54.379 7.43575 54.3391 8.28361 54.3391V54.9081C3.90404 54.9081 1.06425 55.3964 0.606917 55.7616C1.06425 56.1268 3.90404 56.6151 8.28361 56.6151C12.6534 56.6151 15.4903 56.1289 15.9572 55.7641C15.735 55.6078 14.8273 55.2802 12.3928 55.0706L12.442 54.5039C16.5672 54.8589 16.5672 55.5147 16.5672 55.7616C16.5672 57.1442 9.13147 57.1841 8.28361 57.1841Z" fill="#2F2E41"/>
<path d="M8.28361 73.116C7.43575 73.116 0 73.0761 0 71.6935C0 70.3108 7.43575 70.271 8.28361 70.271V70.84C3.90404 70.84 1.06425 71.3283 0.606917 71.6935C1.06425 72.0587 3.90404 72.547 8.28361 72.547C12.6534 72.547 15.4903 72.0607 15.9572 71.696C15.735 71.5397 14.8273 71.2121 12.3928 71.0025L12.442 70.4357C16.5672 70.7908 16.5672 71.4466 16.5672 71.6935C16.5672 73.0761 9.13147 73.116 8.28361 73.116Z" fill="#2F2E41"/>
<path d="M8.28361 89.0478C7.43575 89.0478 0 89.0079 0 87.6253C0 86.2427 7.43575 86.2028 8.28361 86.2028V86.7718C3.90404 86.7718 1.06425 87.2601 0.606917 87.6253C1.06425 87.9905 3.90404 88.4788 8.28361 88.4788C12.6534 88.4788 15.4903 87.9926 15.9572 87.6278C15.735 87.4715 14.8273 87.144 12.3928 86.9344L12.442 86.3676C16.5672 86.7227 16.5672 87.3785 16.5672 87.6253C16.5672 89.008 9.13147 89.0478 8.28361 89.0478Z" fill="#2F2E41"/>
<path d="M8.28361 104.98C7.43575 104.98 0 104.94 0 103.557C0 102.175 7.43575 102.135 8.28361 102.135V102.704C3.90404 102.704 1.06425 103.192 0.606917 103.557C1.06425 103.922 3.90404 104.411 8.28361 104.411C12.6534 104.411 15.4903 103.924 15.9572 103.56C15.735 103.403 14.8273 103.076 12.3928 102.866L12.442 102.299C16.5672 102.655 16.5672 103.31 16.5672 103.557C16.5672 104.94 9.13147 104.98 8.28361 104.98Z" fill="#2F2E41"/>
<path d="M8.28361 120.912C7.43575 120.912 0 120.872 0 119.489C0 118.106 7.43575 118.067 8.28361 118.067V118.636C3.90404 118.636 1.06425 119.124 0.606917 119.489C1.06425 119.854 3.90404 120.343 8.28361 120.343C12.6534 120.343 15.4903 119.856 15.9572 119.492C15.735 119.335 14.8273 119.008 12.3928 118.798L12.442 118.231C16.5672 118.586 16.5672 119.242 16.5672 119.489C16.5672 120.872 9.13147 120.912 8.28361 120.912Z" fill="#2F2E41"/>
<path d="M8.28361 136.843C7.43575 136.843 0 136.804 0 135.421C0 134.038 7.43575 133.998 8.28361 133.998V134.567C3.90404 134.567 1.06425 135.056 0.606917 135.421C1.06425 135.786 3.90404 136.274 8.28361 136.274C12.6534 136.274 15.4903 135.788 15.9572 135.423C15.735 135.267 14.8273 134.94 12.3928 134.73L12.442 134.163C16.5672 134.518 16.5672 135.174 16.5672 135.421C16.5672 136.804 9.13147 136.843 8.28361 136.843Z" fill="#2F2E41"/>
<path d="M8.28361 152.775C7.43575 152.775 0 152.735 0 151.353C0 149.97 7.43575 149.93 8.28361 149.93V150.499C3.90404 150.499 1.06425 150.988 0.606917 151.353C1.06425 151.718 3.90404 152.206 8.28361 152.206C12.6534 152.206 15.4903 151.72 15.9572 151.355C15.735 151.199 14.8273 150.872 12.3928 150.662L12.442 150.095C16.5672 150.45 16.5672 151.106 16.5672 151.353C16.5672 152.735 9.13147 152.775 8.28361 152.775Z" fill="#2F2E41"/>
<path d="M8.28361 168.707C7.43575 168.707 0 168.667 0 167.285C0 165.902 7.43575 165.862 8.28361 165.862V166.431C3.90404 166.431 1.06425 166.92 0.606917 167.285C1.06425 167.65 3.90404 168.138 8.28361 168.138C12.6534 168.138 15.4903 167.652 15.9572 167.287C15.735 167.131 14.8273 166.803 12.3928 166.594L12.442 166.027C16.5672 166.382 16.5672 167.038 16.5672 167.285C16.5672 168.667 9.13147 168.707 8.28361 168.707Z" fill="#2F2E41"/>
<path d="M108.972 66.9992H46.1312C45.6389 66.9987 45.167 66.8037 44.8189 66.457C44.4708 66.1103 44.2751 65.6403 44.2745 65.15V40.6832C44.2751 40.1929 44.4708 39.7229 44.8189 39.3762C45.167 39.0295 45.6389 38.8345 46.1312 38.834H108.972C109.465 38.8345 109.937 39.0295 110.285 39.3762C110.633 39.7229 110.828 40.1929 110.829 40.6832V65.15C110.828 65.6403 110.633 66.1103 110.285 66.457C109.937 66.8037 109.465 66.9987 108.972 66.9992Z" fill="white"/>
<path d="M85.5497 47.2266H69.5538C69.175 47.2266 68.8117 47.0768 68.5439 46.81C68.2761 46.5432 68.1256 46.1814 68.1256 45.8041C68.1256 45.4269 68.2761 45.0651 68.5439 44.7983C68.8117 44.5315 69.175 44.3817 69.5538 44.3817H85.5497C85.9285 44.3817 86.2918 44.5315 86.5596 44.7983C86.8275 45.0651 86.978 45.4269 86.978 45.8041C86.978 46.1814 86.8275 46.5432 86.5596 46.81C86.2918 47.0768 85.9285 47.2266 85.5497 47.2266Z" fill="#F68C8C"/>
<path d="M94.4046 54.3391H60.6989C60.3201 54.3391 59.9568 54.1892 59.689 53.9225C59.4212 53.6557 59.2707 53.2939 59.2707 52.9166C59.2707 52.5393 59.4212 52.1775 59.689 51.9108C59.9568 51.644 60.3201 51.4941 60.6989 51.4941H94.4046C94.7834 51.4941 95.1467 51.644 95.4145 51.9108C95.6824 52.1775 95.8329 52.5393 95.8329 52.9166C95.8329 53.2939 95.6824 53.6557 95.4145 53.9225C95.1467 54.1892 94.7834 54.3391 94.4046 54.3391Z" fill="#F68C8C"/>
<path d="M94.4046 61.4515H60.6989C60.3201 61.4515 59.9568 61.3017 59.689 61.0349C59.4212 60.7681 59.2707 60.4063 59.2707 60.029C59.2707 59.6518 59.4212 59.29 59.689 59.0232C59.9568 58.7564 60.3201 58.6066 60.6989 58.6066H94.4046C94.7834 58.6066 95.1467 58.7564 95.4145 59.0232C95.6824 59.29 95.8329 59.6518 95.8329 60.029C95.8329 60.4063 95.6824 60.7681 95.4145 61.0349C95.1467 61.3017 94.7834 61.4515 94.4046 61.4515Z" fill="#F68C8C"/>
<path d="M257.643 59.0676C258.536 59.0677 259.41 58.8168 260.166 58.3436C260.921 57.8705 261.527 57.1944 261.914 56.3933C262.3 55.5921 262.452 54.6985 262.351 53.8153C262.25 52.9322 261.9 52.0954 261.343 51.4013C259.009 48.497 253.901 48.9419 251.857 45.8283C250.126 43.1899 251.725 39.5667 254.031 37.4081C258.546 33.1824 265.774 32.1439 271.305 34.9265C276.835 37.7091 280.284 44.1201 279.548 50.2473C279.268 52.5811 278.618 55.4136 280.436 56.9116C282.05 58.2411 284.436 57.4865 286.463 56.9629C289.47 56.2081 292.605 56.11 295.653 56.6752C298.701 57.2404 301.591 58.4557 304.123 60.2376C308.43 63.3116 311.569 68.2764 311.571 73.5534C311.573 78.8303 307.964 84.1481 302.801 85.3295C297.739 86.4877 292.522 83.6719 288.941 79.925C285.361 76.1781 282.902 71.5179 279.639 67.4938C276.376 63.4697 271.861 59.9253 266.668 59.8321C263.659 59.7781 260.365 60.8327 257.812 59.247" fill="#2F2E41"/>
<path d="M259.875 61.1688C265.426 61.1688 269.926 56.6871 269.926 51.1587C269.926 45.6303 265.426 41.1486 259.875 41.1486C254.325 41.1486 249.825 45.6303 249.825 51.1587C249.825 56.6871 254.325 61.1688 259.875 61.1688Z" fill="#FFB8B8"/>
<path d="M238.496 117.564C238.319 116.991 238.27 116.387 238.353 115.794C238.435 115.2 238.648 114.632 238.975 114.129C239.302 113.626 239.735 113.201 240.245 112.883C240.755 112.565 241.329 112.362 241.926 112.289L244.996 98.0493L250.32 103.449L246.588 116.144C246.645 117.151 246.329 118.144 245.7 118.934C245.071 119.725 244.173 120.258 243.176 120.433C242.178 120.609 241.151 120.413 240.289 119.884C239.426 119.355 238.788 118.53 238.496 117.564Z" fill="#FFB8B8"/>
<path d="M290.119 179.411L285.189 180.333L270.325 131.707L280.876 130.347L290.119 179.411Z" fill="#FFB8B8"/>
<path d="M281.402 179.589L290.911 177.812L292.034 183.775L276.538 186.671C276.39 185.887 276.399 185.083 276.564 184.303C276.728 183.524 277.045 182.784 277.497 182.126C277.949 181.469 278.526 180.906 279.196 180.471C279.866 180.035 280.615 179.735 281.402 179.589Z" fill="#2F2E41"/>
<path d="M257.809 182.03L252.792 182.03L252.042 137L262.72 137L257.809 182.03Z" fill="#FFB8B8"/>
<path d="M249.209 180.602H258.884V186.669H243.117C243.117 185.873 243.275 185.084 243.581 184.348C243.887 183.611 244.336 182.943 244.901 182.379C245.467 181.816 246.138 181.369 246.877 181.064C247.617 180.759 248.409 180.602 249.209 180.602Z" fill="#2F2E41"/>
<path d="M249.734 143.128L250.194 121.121C250.159 120.811 246.535 87.47 245.185 78.9506C243.812 70.2936 250.904 65.8546 250.975 65.8108C251.293 65.6813 251.58 65.5716 251.866 65.4663C255.221 64.2022 258.866 63.9089 262.38 64.6202C265.895 65.3316 269.136 67.0186 271.728 69.4864C274.413 71.9537 276.354 75.1177 277.333 78.623C278.312 82.1283 278.29 85.836 277.271 89.3297L274.769 97.9553C287.585 121.031 290.214 130.962 290.24 131.059L290.247 131.089L290.246 131.12C289.786 140.272 251.583 143.001 249.957 143.113L249.734 143.128Z" fill="#F68C8C"/>
<path d="M246.754 74.8345L238.096 108.872L253.589 110.687L246.754 74.8345Z" fill="#F68C8C"/>
<path d="M267.682 102.969C267.788 102.379 268.023 101.82 268.369 101.33C268.716 100.84 269.166 100.432 269.688 100.134C270.21 99.8364 270.791 99.6563 271.391 99.6064C271.99 99.5566 272.593 99.6383 273.158 99.8458L282.438 88.5908L284.685 95.8205L275.528 105.4C275.115 106.321 274.378 107.059 273.455 107.475C272.532 107.891 271.488 107.955 270.521 107.655C269.554 107.355 268.731 106.713 268.208 105.849C267.685 104.985 267.498 103.961 267.682 102.969Z" fill="#FFB8B8"/>
<path d="M279.803 102.996L271.725 97.7913L279.413 89.6831L258.567 83.3637L263.93 67.8015L270.528 68.7402L287.3 81.114C289.432 82.6993 290.856 85.0545 291.263 87.6736C291.671 90.2926 291.031 92.9665 289.481 95.1207L289.445 95.1593L279.803 102.996Z" fill="#F68C8C"/>
<path d="M250.826 45.4692C255.15 48.0986 260.026 49.6987 265.073 50.1449L263.571 48.3526C264.665 48.7553 265.815 48.9829 266.98 49.0269C268.144 49.0088 269.363 48.5625 270.024 47.6081C270.318 47.1337 270.493 46.5953 270.534 46.039C270.574 45.4826 270.479 44.9248 270.256 44.413C269.798 43.3922 269.086 42.5051 268.187 41.836C266.593 40.5802 264.712 39.7366 262.711 39.3805C260.711 39.0244 258.653 39.1668 256.721 39.795C255.395 40.1895 254.209 40.9477 253.296 41.983C252.431 43.0465 250.543 44.0029 250.986 45.2988L250.826 45.4692Z" fill="#2F2E41"/>
<path d="M324.513 187H199.996C199.867 187 199.743 186.949 199.652 186.858C199.56 186.767 199.509 186.643 199.509 186.515C199.509 186.386 199.56 186.263 199.652 186.172C199.743 186.081 199.867 186.029 199.996 186.029H324.513C324.642 186.03 324.765 186.081 324.856 186.172C324.947 186.263 324.999 186.386 324.999 186.515C324.999 186.643 324.947 186.766 324.856 186.857C324.765 186.948 324.642 187 324.513 187Z" fill="#3F3D56"/>
</svg>
