<svg width="428" height="926" viewBox="0 0 428 926" fill="none" xmlns="http://www.w3.org/2000/svg">
<g clip-path="url(#clip0_28_43)">
<rect width="428" height="926" fill="#5F4AB1"/>
<line x1="49.5" y1="2.18557e-08" x2="49.5" y2="669" stroke="white"/>
<g clip-path="url(#clip1_28_43)">
<g clip-path="url(#clip2_28_43)">
<path d="M50.1699 803.772C32.1069 803.772 15.0699 797.978 -7.62939e-05 787.672L-7.62939e-05 531.036C14.5531 521.301 31.6529 516.071 49.1619 516C49.1619 545.279 50.1699 742.068 50.1699 803.772Z" fill="#FFAFDF"/>
</g>
<g clip-path="url(#clip3_28_43)">
<path d="M376 561C394.62 561 412.183 566.794 427.717 577.1V833.736C412.614 843.501 395.024 848.721 377.039 848.772C377.039 819.493 376 622.704 376 561Z" fill="#D5CFF4"/>
</g>
<path d="M185.978 836.12H190.706L195.434 847.232L195.626 847.184L195.338 843.272V836.12H198.914V851H194.186L189.458 839.888L189.266 839.936L189.554 843.848V851H185.978V836.12ZM208.345 851.24C206.329 851.24 204.769 851.016 203.665 850.568C202.577 850.104 202.033 849.28 202.033 848.096V836.12H213.193V839.408H205.633V842.072H211.969V845.216H205.633V847.712C206.449 847.872 207.393 847.952 208.465 847.952C210.081 847.952 211.545 847.8 212.857 847.496L213.313 850.712C211.937 851.064 210.281 851.24 208.345 851.24ZM215.186 850.544C216.21 848.336 217.714 846.04 219.698 843.656C217.746 841.336 216.242 839.04 215.186 836.768L218.858 836.12C219.306 837.192 219.77 838.152 220.25 839C220.73 839.832 221.338 840.816 222.074 841.952H222.53C223.17 841.056 223.746 840.16 224.258 839.264C224.77 838.352 225.282 837.304 225.794 836.12L229.466 836.768C228.41 839.04 226.906 841.336 224.954 843.656C226.938 846.04 228.442 848.336 229.466 850.544L225.794 851.192C225.33 850.12 224.866 849.184 224.402 848.384C223.954 847.568 223.33 846.536 222.53 845.288H222.122C221.45 846.28 220.858 847.232 220.346 848.144C219.85 849.04 219.354 850.056 218.858 851.192L215.186 850.544ZM235.614 839.48H230.862V836.12H243.966V839.48H239.214V851H235.614V839.48Z" fill="#5F4AB1"/>
<path d="M201.165 0C209.303 27.6661 209.719 57.0309 202.369 84.9167C195.02 112.802 180.184 138.147 159.467 158.208C138.75 178.27 112.942 192.283 84.8341 198.733C56.7265 205.183 27.3903 203.823 0 194.8V0H201.165Z" fill="#F68C8C"/>
<path d="M107.071 168V154.917H107.806L111.25 161.448L114.757 154.896H115.45V168H114.484V157.29L111.439 162.813H110.956L108.037 157.311V168H107.071ZM121.75 168.168C120.882 168.168 120.133 167.958 119.503 167.538C118.873 167.118 118.383 166.537 118.033 165.795C117.697 165.053 117.529 164.199 117.529 163.233C117.529 162.253 117.697 161.392 118.033 160.65C118.383 159.908 118.873 159.327 119.503 158.907C120.133 158.487 120.882 158.277 121.75 158.277C122.618 158.277 123.367 158.487 123.997 158.907C124.627 159.327 125.11 159.908 125.446 160.65C125.796 161.392 125.971 162.253 125.971 163.233C125.971 164.199 125.796 165.053 125.446 165.795C125.11 166.537 124.627 167.118 123.997 167.538C123.367 167.958 122.618 168.168 121.75 168.168ZM121.75 167.286C122.422 167.286 122.989 167.111 123.451 166.761C123.927 166.411 124.291 165.928 124.543 165.312C124.795 164.696 124.921 163.996 124.921 163.212C124.921 162.386 124.781 161.672 124.501 161.07C124.235 160.454 123.864 159.978 123.388 159.642C122.926 159.306 122.38 159.138 121.75 159.138C121.106 159.138 120.546 159.313 120.07 159.663C119.594 160.013 119.23 160.496 118.978 161.112C118.726 161.714 118.6 162.414 118.6 163.212C118.6 164.01 118.726 164.717 118.978 165.333C119.23 165.949 119.594 166.432 120.07 166.782C120.546 167.118 121.106 167.286 121.75 167.286ZM129.604 158.487H130.675L130.612 161.28L130.444 161.133C130.528 160.685 130.675 160.286 130.885 159.936C131.109 159.572 131.375 159.264 131.683 159.012C132.005 158.76 132.348 158.571 132.712 158.445C133.09 158.319 133.475 158.256 133.867 158.256C134.343 158.256 134.819 158.347 135.295 158.529C135.771 158.697 136.177 158.956 136.513 159.306L136.03 160.083L135.946 160.251L135.799 160.167C135.799 160.069 135.771 159.978 135.715 159.894C135.659 159.81 135.533 159.698 135.337 159.558C135.085 159.404 134.84 159.299 134.602 159.243C134.378 159.173 134.133 159.138 133.867 159.138C133.433 159.138 133.02 159.222 132.628 159.39C132.236 159.558 131.886 159.803 131.578 160.125C131.284 160.447 131.053 160.839 130.885 161.301C130.717 161.749 130.633 162.267 130.633 162.855V168.021H129.604V158.487ZM143.128 168.21C142.456 168.21 141.847 168.098 141.301 167.874C140.755 167.65 140.286 167.328 139.894 166.908C139.502 166.474 139.194 165.956 138.97 165.354C138.76 164.738 138.655 164.045 138.655 163.275C138.655 162.463 138.76 161.749 138.97 161.133C139.194 160.503 139.495 159.978 139.873 159.558C140.265 159.124 140.713 158.802 141.217 158.592C141.721 158.368 142.267 158.256 142.855 158.256C143.401 158.256 143.905 158.347 144.367 158.529C144.843 158.711 145.256 158.984 145.606 159.348C145.956 159.712 146.229 160.174 146.425 160.734C146.621 161.294 146.719 161.952 146.719 162.708C146.719 162.82 146.719 162.918 146.719 163.002C146.719 163.072 146.712 163.163 146.698 163.275H139.642C139.656 163.961 139.754 164.563 139.936 165.081C140.118 165.585 140.363 166.005 140.671 166.341C140.979 166.677 141.343 166.929 141.763 167.097C142.183 167.265 142.645 167.349 143.149 167.349C143.555 167.349 143.919 167.3 144.241 167.202C144.563 167.104 144.857 166.964 145.123 166.782C145.389 166.586 145.634 166.362 145.858 166.11L146.488 166.677C146.222 166.999 145.914 167.279 145.564 167.517C145.228 167.741 144.857 167.909 144.451 168.021C144.045 168.147 143.604 168.21 143.128 168.21ZM139.684 162.435H145.69C145.69 161.903 145.62 161.427 145.48 161.007C145.34 160.587 145.144 160.237 144.892 159.957C144.64 159.663 144.339 159.446 143.989 159.306C143.639 159.152 143.254 159.075 142.834 159.075C142.386 159.075 141.98 159.152 141.616 159.306C141.252 159.46 140.93 159.684 140.65 159.978C140.384 160.272 140.167 160.629 139.999 161.049C139.845 161.455 139.74 161.917 139.684 162.435ZM162.133 159.411H159.823V158.571H162.133V157.668C162.133 156.814 162.266 156.107 162.532 155.547C162.798 154.987 163.176 154.574 163.666 154.308C164.156 154.042 164.744 153.909 165.43 153.909C166.032 153.909 166.592 154.021 167.11 154.245C167.642 154.455 168.083 154.784 168.433 155.232L167.908 155.967L167.782 156.135L167.656 156.03C167.67 155.946 167.649 155.855 167.593 155.757C167.551 155.659 167.446 155.526 167.278 155.358C167.012 155.148 166.739 154.994 166.459 154.896C166.179 154.798 165.85 154.749 165.472 154.749C164.982 154.749 164.562 154.847 164.212 155.043C163.862 155.239 163.589 155.547 163.393 155.967C163.211 156.387 163.12 156.954 163.12 157.668V158.571H166.501V159.411H163.12V168H162.133V159.411ZM173.788 168.231C173.424 168.231 173.074 168.175 172.738 168.063C172.416 167.965 172.115 167.804 171.835 167.58C171.569 167.356 171.338 167.076 171.142 166.74C170.946 166.39 170.792 165.977 170.68 165.501C170.582 165.025 170.533 164.479 170.533 163.863L170.554 158.487H171.541V163.863C171.541 164.521 171.604 165.081 171.73 165.543C171.87 165.991 172.052 166.348 172.276 166.614C172.514 166.88 172.787 167.076 173.095 167.202C173.403 167.314 173.739 167.37 174.103 167.37C174.495 167.37 174.859 167.3 175.195 167.16C175.545 167.006 175.853 166.782 176.119 166.488C176.385 166.18 176.595 165.802 176.749 165.354C176.903 164.906 176.98 164.381 176.98 163.779V158.487H177.967V166.278C177.967 166.53 177.974 166.817 177.988 167.139C178.016 167.461 178.079 167.748 178.177 168H177.19C177.12 167.832 177.071 167.65 177.043 167.454C177.015 167.258 176.994 167.062 176.98 166.866C176.98 166.656 176.98 166.474 176.98 166.32C176.84 166.586 176.672 166.831 176.476 167.055C176.294 167.279 176.07 167.482 175.804 167.664C175.552 167.832 175.258 167.965 174.922 168.063C174.586 168.175 174.208 168.231 173.788 168.231ZM181.159 168V158.487H182.167V160.503C182.377 160.041 182.65 159.649 182.986 159.327C183.336 158.991 183.735 158.732 184.183 158.55C184.631 158.368 185.1 158.277 185.59 158.277C186.108 158.277 186.577 158.403 186.997 158.655C187.431 158.893 187.781 159.299 188.047 159.873C188.313 160.447 188.446 161.245 188.446 162.267V168H187.438V162.309C187.438 161.525 187.354 160.909 187.186 160.461C187.018 159.999 186.773 159.67 186.451 159.474C186.129 159.278 185.744 159.18 185.296 159.18C184.876 159.18 184.477 159.271 184.099 159.453C183.735 159.621 183.406 159.859 183.112 160.167C182.818 160.461 182.587 160.811 182.419 161.217C182.251 161.623 182.167 162.071 182.167 162.561V168H181.159Z" fill="#E9E7EF"/>
<line x1="375.5" y1="2.18557e-08" x2="375.5" y2="663" stroke="white"/>
<path d="M111.186 256.215C110.097 256.215 109.323 255.642 108.864 254.495C108.434 253.348 108.219 251.514 108.219 248.991C108.219 245.264 108.75 241.724 109.81 238.37C110.068 237.539 110.484 236.937 111.057 236.564C111.659 236.163 112.491 235.962 113.551 235.962C114.125 235.962 114.526 236.034 114.755 236.177C114.985 236.32 115.099 236.593 115.099 236.994C115.099 237.453 114.884 238.485 114.454 240.09C114.168 241.237 113.938 242.24 113.766 243.1C113.594 243.931 113.451 244.978 113.336 246.239C114.11 244.003 115.028 242.111 116.088 240.563C117.178 239.015 118.281 237.868 119.399 237.123C120.546 236.349 121.621 235.962 122.624 235.962C123.628 235.962 124.33 236.191 124.731 236.65C125.161 237.109 125.376 237.811 125.376 238.757C125.376 239.674 125.104 241.337 124.559 243.745C124.33 244.777 124.172 245.551 124.086 246.067C125.52 242.541 127.111 239.975 128.859 238.37C130.608 236.765 132.242 235.962 133.761 235.962C135.625 235.962 136.556 236.894 136.556 238.757C136.556 239.875 136.241 241.896 135.61 244.82C135.066 247.314 134.793 248.962 134.793 249.765C134.793 250.912 135.209 251.485 136.04 251.485C136.614 251.485 137.287 251.141 138.061 250.453C138.864 249.736 139.925 248.59 141.243 247.013C141.587 246.612 141.974 246.411 142.404 246.411C142.777 246.411 143.064 246.583 143.264 246.927C143.494 247.271 143.608 247.744 143.608 248.346C143.608 249.493 143.336 250.381 142.791 251.012C141.559 252.531 140.226 253.778 138.792 254.753C137.388 255.728 135.782 256.215 133.976 256.215C132.514 256.215 131.411 255.799 130.665 254.968C129.92 254.108 129.547 252.875 129.547 251.27C129.547 250.467 129.748 249.034 130.149 246.97C130.522 245.164 130.708 243.917 130.708 243.229C130.708 242.77 130.551 242.541 130.235 242.541C129.863 242.541 129.332 243.028 128.644 244.003C127.956 244.949 127.268 246.21 126.58 247.787C125.892 249.364 125.333 251.026 124.903 252.775C124.588 254.151 124.215 255.068 123.785 255.527C123.384 255.986 122.725 256.215 121.807 256.215C120.861 256.215 120.145 255.771 119.657 254.882C119.199 253.965 118.969 252.861 118.969 251.571C118.969 250.482 119.113 248.905 119.399 246.841C119.629 245.006 119.743 243.802 119.743 243.229C119.743 242.77 119.586 242.541 119.27 242.541C118.84 242.541 118.296 243.057 117.636 244.089C116.977 245.121 116.332 246.44 115.701 248.045C115.099 249.65 114.612 251.227 114.239 252.775C113.924 254.122 113.551 255.04 113.121 255.527C112.72 255.986 112.075 256.215 111.186 256.215ZM162.147 246.497C162.52 246.497 162.807 246.683 163.007 247.056C163.237 247.4 163.351 247.844 163.351 248.389C163.351 249.048 163.251 249.564 163.05 249.937C162.85 250.31 162.534 250.639 162.104 250.926L153.848 256.473C152.759 262.407 151.326 267.065 149.548 270.448C147.8 273.859 145.564 275.565 142.84 275.565C141.378 275.565 140.189 275.106 139.271 274.189C138.354 273.3 137.895 272.125 137.895 270.663C137.895 269.316 138.196 267.94 138.798 266.535C139.429 265.13 140.576 263.511 142.238 261.676C143.93 259.87 146.309 257.792 149.376 255.441L149.505 254.452C149.706 253.391 149.935 251.872 150.193 249.894C149.62 251.958 148.817 253.535 147.785 254.624C146.753 255.685 145.664 256.215 144.517 256.215C143.227 256.215 142.167 255.627 141.335 254.452C140.533 253.248 140.131 251.757 140.131 249.98C140.131 247.83 140.275 245.866 140.561 244.089C140.848 242.283 141.321 240.377 141.98 238.37C142.267 237.51 142.668 236.894 143.184 236.521C143.7 236.148 144.517 235.962 145.635 235.962C146.266 235.962 146.696 236.062 146.925 236.263C147.183 236.464 147.312 236.765 147.312 237.166C147.312 237.395 147.155 238.169 146.839 239.488C146.553 240.549 146.323 241.509 146.151 242.369C145.922 243.544 145.721 244.677 145.549 245.766C145.377 246.827 145.291 247.701 145.291 248.389C145.291 249.478 145.592 250.023 146.194 250.023C146.624 250.023 147.155 249.593 147.785 248.733C148.445 247.873 149.133 246.569 149.849 244.82C150.595 243.071 151.311 240.921 151.999 238.37C152.229 237.51 152.573 236.894 153.031 236.521C153.519 236.148 154.235 235.962 155.181 235.962C155.841 235.962 156.299 236.048 156.557 236.22C156.815 236.392 156.944 236.679 156.944 237.08C156.944 237.797 156.572 240.262 155.826 244.476L154.708 251.399C156.916 249.736 159.066 248.217 161.158 246.841C161.531 246.612 161.861 246.497 162.147 246.497ZM143.313 271.394C144.03 271.394 144.833 270.563 145.721 268.9C146.61 267.237 147.499 264.471 148.387 260.601C146.18 262.464 144.575 264.156 143.571 265.675C142.597 267.223 142.109 268.57 142.109 269.717C142.109 270.204 142.195 270.606 142.367 270.921C142.568 271.236 142.883 271.394 143.313 271.394ZM179.466 246.411C179.838 246.411 180.125 246.583 180.326 246.927C180.555 247.271 180.67 247.744 180.67 248.346C180.67 249.493 180.397 250.381 179.853 251.012C178.62 252.531 177.273 253.778 175.811 254.753C174.349 255.728 172.672 256.215 170.78 256.215C164.932 256.215 162.008 252.101 162.008 243.874C162.008 242.613 162.051 241.337 162.137 240.047H160.46C159.6 240.047 159.012 239.889 158.697 239.574C158.41 239.259 158.267 238.757 158.267 238.069C158.267 236.464 158.912 235.661 160.202 235.661H162.653C163.14 232.508 163.885 229.627 164.889 227.018C165.892 224.409 167.096 222.331 168.501 220.783C169.934 219.235 171.468 218.461 173.102 218.461C174.306 218.461 175.252 218.991 175.94 220.052C176.628 221.113 176.972 222.446 176.972 224.051C176.972 228.494 175.108 232.364 171.382 235.661H176.198C176.656 235.661 176.986 235.761 177.187 235.962C177.387 236.163 177.488 236.535 177.488 237.08C177.488 239.058 175.868 240.047 172.629 240.047H167.383C167.325 241.48 167.297 242.598 167.297 243.401C167.297 246.382 167.641 248.475 168.329 249.679C169.045 250.883 170.163 251.485 171.683 251.485C172.915 251.485 174.005 251.112 174.951 250.367C175.897 249.622 177.015 248.504 178.305 247.013C178.649 246.612 179.036 246.411 179.466 246.411ZM171.941 222.589C171.511 222.589 171.023 223.134 170.479 224.223C169.963 225.284 169.461 226.774 168.974 228.695C168.515 230.587 168.128 232.694 167.813 235.016C169.504 233.554 170.765 231.92 171.597 230.114C172.457 228.279 172.887 226.617 172.887 225.126C172.887 223.435 172.571 222.589 171.941 222.589ZM201.033 246.411C201.406 246.411 201.693 246.583 201.893 246.927C202.123 247.271 202.237 247.744 202.237 248.346C202.237 249.493 201.965 250.381 201.42 251.012C200.102 252.531 198.74 253.778 197.335 254.753C195.959 255.728 194.383 256.215 192.605 256.215C191.143 256.215 190.04 255.799 189.294 254.968C188.549 254.108 188.176 252.875 188.176 251.27C188.176 250.467 188.377 249.034 188.778 246.97C189.151 245.164 189.337 243.917 189.337 243.229C189.337 242.77 189.18 242.541 188.864 242.541C188.492 242.541 187.961 243.028 187.273 244.003C186.585 244.949 185.897 246.21 185.209 247.787C184.521 249.364 183.962 251.026 183.532 252.775C182.988 255.068 181.64 256.215 179.49 256.215C178.63 256.215 178.057 255.914 177.77 255.312C177.512 254.681 177.383 253.563 177.383 251.958C177.383 251.041 177.398 250.31 177.426 249.765L177.469 246.325C177.469 241.91 177.914 237.309 178.802 232.522C179.72 227.735 181.053 223.721 182.801 220.482C184.579 217.214 186.7 215.58 189.165 215.58C190.484 215.58 191.545 216.153 192.347 217.3C193.179 218.418 193.594 219.88 193.594 221.686C193.594 224.581 192.749 227.591 191.057 230.716C189.366 233.812 186.614 237.438 182.801 241.595C182.715 243.086 182.672 244.619 182.672 246.196C183.618 243.759 184.665 241.781 185.811 240.262C186.987 238.714 188.133 237.61 189.251 236.951C190.398 236.292 191.444 235.962 192.39 235.962C194.254 235.962 195.185 236.894 195.185 238.757C195.185 239.875 194.87 241.896 194.239 244.82C193.695 247.314 193.422 248.962 193.422 249.765C193.422 250.912 193.838 251.485 194.669 251.485C195.243 251.485 195.916 251.141 196.69 250.453C197.493 249.736 198.554 248.59 199.872 247.013C200.216 246.612 200.603 246.411 201.033 246.411ZM188.262 219.837C187.746 219.837 187.173 220.582 186.542 222.073C185.912 223.535 185.295 225.527 184.693 228.05C184.12 230.544 183.647 233.267 183.274 236.22C185.052 234.127 186.514 231.848 187.66 229.383C188.836 226.918 189.423 224.682 189.423 222.675C189.423 221.758 189.323 221.055 189.122 220.568C188.922 220.081 188.635 219.837 188.262 219.837ZM204.385 233.124C203.181 233.124 202.278 232.852 201.676 232.307C201.074 231.734 200.773 230.945 200.773 229.942C200.773 228.939 201.16 228.107 201.934 227.448C202.737 226.76 203.726 226.416 204.901 226.416C205.962 226.416 206.822 226.674 207.481 227.19C208.141 227.706 208.47 228.437 208.47 229.383C208.47 230.53 208.098 231.447 207.352 232.135C206.607 232.794 205.618 233.124 204.385 233.124ZM204.041 256.215C202.178 256.215 200.816 255.556 199.956 254.237C199.125 252.918 198.709 251.17 198.709 248.991C198.709 247.701 198.867 246.053 199.182 244.046C199.526 242.011 199.956 240.119 200.472 238.37C200.73 237.453 201.074 236.822 201.504 236.478C201.934 236.134 202.622 235.962 203.568 235.962C205.03 235.962 205.761 236.449 205.761 237.424C205.761 238.141 205.489 239.803 204.944 242.412C204.256 245.565 203.912 247.701 203.912 248.819C203.912 249.679 204.027 250.338 204.256 250.797C204.486 251.256 204.873 251.485 205.417 251.485C205.933 251.485 206.578 251.127 207.352 250.41C208.126 249.693 209.158 248.561 210.448 247.013C210.792 246.612 211.179 246.411 211.609 246.411C211.982 246.411 212.269 246.583 212.469 246.927C212.699 247.271 212.813 247.744 212.813 248.346C212.813 249.493 212.541 250.381 211.996 251.012C209.158 254.481 206.507 256.215 204.041 256.215ZM217.333 256.215C214.609 256.215 212.474 255.427 210.926 253.85C209.406 252.245 208.647 250.138 208.647 247.529C208.647 245.207 209.105 243.172 210.023 241.423C210.94 239.674 212.13 238.327 213.592 237.381C215.054 236.435 216.587 235.962 218.193 235.962C219.769 235.962 220.988 236.435 221.848 237.381C222.736 238.298 223.181 239.488 223.181 240.95C223.181 242.154 222.908 243.172 222.364 244.003C221.848 244.834 221.16 245.25 220.3 245.25C219.755 245.25 219.311 245.121 218.967 244.863C218.651 244.605 218.494 244.247 218.494 243.788C218.494 243.587 218.522 243.358 218.58 243.1C218.637 242.842 218.68 242.656 218.709 242.541C218.852 242.111 218.924 241.71 218.924 241.337C218.924 240.964 218.823 240.678 218.623 240.477C218.451 240.276 218.193 240.176 217.849 240.176C217.189 240.176 216.573 240.477 216 241.079C215.426 241.652 214.968 242.441 214.624 243.444C214.28 244.447 214.108 245.551 214.108 246.755C214.108 248.389 214.437 249.636 215.097 250.496C215.785 251.327 216.745 251.743 217.978 251.743C218.952 251.743 219.841 251.456 220.644 250.883C221.475 250.31 222.292 249.464 223.095 248.346C223.439 247.916 223.826 247.701 224.256 247.701C224.628 247.701 224.915 247.873 225.116 248.217C225.345 248.561 225.46 249.034 225.46 249.636C225.46 250.668 225.216 251.557 224.729 252.302C223.955 253.506 222.937 254.466 221.676 255.183C220.414 255.871 218.967 256.215 217.333 256.215ZM257.277 246.411C257.65 246.411 257.936 246.583 258.137 246.927C258.366 247.271 258.481 247.744 258.481 248.346C258.481 249.493 258.209 250.381 257.664 251.012C256.431 252.531 255.084 253.778 253.622 254.753C252.16 255.728 250.483 256.215 248.591 256.215C242.743 256.215 239.819 252.101 239.819 243.874C239.819 242.613 239.862 241.337 239.948 240.047H238.271C237.411 240.047 236.823 239.889 236.508 239.574C236.221 239.259 236.078 238.757 236.078 238.069C236.078 236.464 236.723 235.661 238.013 235.661H240.464C240.951 232.508 241.697 229.627 242.7 227.018C243.703 224.409 244.907 222.331 246.312 220.783C247.745 219.235 249.279 218.461 250.913 218.461C252.117 218.461 253.063 218.991 253.751 220.052C254.439 221.113 254.783 222.446 254.783 224.051C254.783 228.494 252.92 232.364 249.193 235.661H254.009C254.468 235.661 254.797 235.761 254.998 235.962C255.199 236.163 255.299 236.535 255.299 237.08C255.299 239.058 253.679 240.047 250.44 240.047H245.194C245.137 241.48 245.108 242.598 245.108 243.401C245.108 246.382 245.452 248.475 246.14 249.679C246.857 250.883 247.975 251.485 249.494 251.485C250.727 251.485 251.816 251.112 252.762 250.367C253.708 249.622 254.826 248.504 256.116 247.013C256.46 246.612 256.847 246.411 257.277 246.411ZM249.752 222.589C249.322 222.589 248.835 223.134 248.29 224.223C247.774 225.284 247.272 226.774 246.785 228.695C246.326 230.587 245.939 232.694 245.624 235.016C247.315 233.554 248.577 231.92 249.408 230.114C250.268 228.279 250.698 226.617 250.698 225.126C250.698 223.435 250.383 222.589 249.752 222.589ZM276.91 242.799C277.283 242.799 277.569 242.985 277.77 243.358C277.971 243.731 278.071 244.204 278.071 244.777C278.071 246.153 277.655 246.97 276.824 247.228C275.104 247.83 273.212 248.174 271.148 248.26C270.603 250.668 269.528 252.603 267.923 254.065C266.318 255.498 264.497 256.215 262.462 256.215C260.742 256.215 259.266 255.799 258.033 254.968C256.829 254.137 255.912 253.033 255.281 251.657C254.65 250.281 254.335 248.79 254.335 247.185C254.335 245.006 254.751 243.071 255.582 241.38C256.413 239.66 257.56 238.327 259.022 237.381C260.484 236.406 262.104 235.919 263.881 235.919C266.06 235.919 267.808 236.679 269.127 238.198C270.474 239.689 271.263 241.538 271.492 243.745C272.839 243.659 274.445 243.372 276.308 242.885C276.537 242.828 276.738 242.799 276.91 242.799ZM262.806 251.657C263.723 251.657 264.512 251.284 265.171 250.539C265.859 249.794 266.318 248.719 266.547 247.314C265.658 246.712 264.97 245.924 264.483 244.949C264.024 243.974 263.795 242.942 263.795 241.853C263.795 241.394 263.838 240.936 263.924 240.477H263.709C262.562 240.477 261.602 241.036 260.828 242.154C260.083 243.243 259.71 244.791 259.71 246.798C259.71 248.375 260.011 249.579 260.613 250.41C261.244 251.241 261.975 251.657 262.806 251.657ZM298.804 246.411C299.177 246.411 299.464 246.583 299.664 246.927C299.894 247.271 300.008 247.744 300.008 248.346C300.008 249.493 299.736 250.381 299.191 251.012C298.016 252.445 296.726 253.678 295.321 254.71C293.917 255.713 292.526 256.215 291.15 256.215C288.972 256.215 287.309 254.939 286.162 252.388C284.958 253.907 283.898 254.925 282.98 255.441C282.092 255.957 281.045 256.215 279.841 256.215C278.093 256.215 276.645 255.57 275.498 254.28C274.38 252.961 273.821 251.256 273.821 249.163C273.821 246.87 274.309 244.748 275.283 242.799C276.258 240.821 277.591 239.216 279.282 237.983C281.002 236.722 282.923 235.976 285.044 235.747C285.589 230.186 286.621 225.441 288.14 221.514C289.688 217.558 291.709 215.58 294.203 215.58C295.436 215.58 296.454 216.139 297.256 217.257C298.088 218.375 298.503 220.066 298.503 222.331C298.503 225.542 297.715 229.297 296.138 233.597C294.562 237.897 292.455 242.312 289.817 246.841C289.932 248.504 290.176 249.693 290.548 250.41C290.95 251.127 291.451 251.485 292.053 251.485C292.827 251.485 293.616 251.141 294.418 250.453C295.221 249.765 296.296 248.618 297.643 247.013C297.987 246.612 298.374 246.411 298.804 246.411ZM293.73 219.794C293.186 219.794 292.641 220.769 292.096 222.718C291.552 224.639 291.079 227.161 290.677 230.286C290.305 233.411 290.032 236.679 289.86 240.09C293.071 233.095 294.676 227.477 294.676 223.234C294.676 222.145 294.576 221.299 294.375 220.697C294.203 220.095 293.988 219.794 293.73 219.794ZM281.346 251.872C281.891 251.872 282.436 251.657 282.98 251.227C283.525 250.768 284.213 249.937 285.044 248.733C284.758 247.185 284.614 245.451 284.614 243.53C284.614 242.842 284.643 241.724 284.7 240.176C283.124 240.663 281.805 241.724 280.744 243.358C279.712 244.963 279.196 246.755 279.196 248.733C279.196 250.826 279.913 251.872 281.346 251.872ZM303.777 256.215C302.086 256.215 300.638 255.799 299.434 254.968C298.259 254.108 297.37 252.99 296.768 251.614C296.166 250.238 295.865 248.762 295.865 247.185C295.865 245.006 296.267 243.071 297.069 241.38C297.901 239.66 299.019 238.327 300.423 237.381C301.828 236.406 303.405 235.919 305.153 235.919C306.845 235.919 308.292 236.349 309.496 237.209C310.7 238.04 311.603 239.144 312.205 240.52C312.807 241.896 313.108 243.372 313.108 244.949C313.108 247.128 312.693 249.077 311.861 250.797C311.03 252.488 309.898 253.821 308.464 254.796C307.06 255.742 305.497 256.215 303.777 256.215ZM304.25 251.571C305.225 251.571 306.042 251.041 306.701 249.98C307.389 248.919 307.733 247.371 307.733 245.336C307.733 243.759 307.447 242.57 306.873 241.767C306.3 240.964 305.612 240.563 304.809 240.563C303.777 240.563 302.917 241.093 302.229 242.154C301.57 243.186 301.24 244.734 301.24 246.798C301.24 248.432 301.527 249.636 302.1 250.41C302.674 251.184 303.39 251.571 304.25 251.571Z" fill="#E9E7EF"/>
<circle cx="315" cy="133" r="28" fill="#F9E5AF"/>
<circle cx="418.5" cy="300.5" r="30.5" fill="#FFB8B8"/>
</g>
<circle cx="0.5" cy="376.5" r="30.5" fill="#9EDFFF"/>
</g>
<defs>
<clipPath id="clip0_28_43">
<rect width="428" height="926" fill="white"/>
</clipPath>
<clipPath id="clip1_28_43">
<rect width="428" height="926" fill="white"/>
</clipPath>
<clipPath id="clip2_28_43">
<rect width="50.17" height="287.772" fill="white" transform="translate(0 516)"/>
</clipPath>
<clipPath id="clip3_28_43">
<rect width="51.717" height="287.772" fill="white" transform="translate(376 561)"/>
</clipPath>
</defs>
</svg>
